<svg version="1.1" id="Layer_1" xmlns="http://www.w3.org/2000/svg" xmlns:xlink="http://www.w3.org/1999/xlink" x="0px" y="0px"
	 width="100%" viewBox="0 0 500 500" enable-background="new 0 0 500 500" xml:space="preserve">
<path fill="#010001" opacity="1.000000" stroke="none" 
	d="
M1.000000,195.000000 
	C1.000000,131.349106 1.031734,68.198151 0.910616,5.047487 
	C0.904251,1.728665 1.429386,0.897074 4.950758,0.899554 
	C168.909729,1.015018 332.868805,1.018207 496.827759,0.887461 
	C500.644867,0.884417 501.081482,1.928713 501.079590,5.325765 
	C500.988495,169.118149 500.987305,332.910583 501.086212,496.702942 
	C501.088287,500.177582 500.536743,501.109619 496.799042,501.106781 
	C333.006714,500.983032 169.214264,500.982483 5.421920,501.105560 
	C1.498108,501.108521 0.910332,500.030273 0.914179,496.424011 
	C1.021183,396.116089 1.000000,295.808044 1.000000,195.000000 
z"/>
<path fill="#F372F9" opacity="1.000000" stroke="none" 
	d="
M28.360100,249.277832 
	C33.339947,248.276489 37.585690,246.675110 41.587578,244.041779 
	C54.947681,235.250534 53.296947,221.923157 42.354252,212.472595 
	C39.105873,209.667160 35.337440,207.437149 31.690409,205.128113 
	C28.497694,203.106735 27.262716,200.324310 27.681437,196.680237 
	C28.110264,192.948212 30.971905,192.018951 33.968586,191.248047 
	C40.430775,189.585556 47.217796,190.588120 53.685753,188.415680 
	C69.410706,183.134033 67.972008,168.357193 62.499767,159.269730 
	C59.980900,155.086792 56.004436,152.224411 53.503609,148.117340 
	C51.682610,145.126740 50.801979,142.113892 52.747589,138.739059 
	C54.847458,135.096649 58.195518,135.270508 61.516193,135.773788 
	C64.126472,136.169388 66.668724,137.055862 69.218231,137.802658 
	C77.495049,140.227127 85.355751,138.822800 91.771225,133.447144 
	C97.856331,128.348328 98.594452,117.205826 94.644600,109.374779 
	C93.076401,106.265640 91.644234,103.076729 90.346237,99.845367 
	C88.848167,96.115921 89.208130,92.406769 92.339279,89.767006 
	C95.544014,87.065208 99.203415,88.521591 102.099243,90.457169 
	C106.325645,93.282104 110.904190,95.048820 115.644348,96.650383 
	C128.039429,100.838303 137.996124,94.789795 140.003433,81.892143 
	C140.949036,75.816208 139.967300,69.907501 138.672348,64.068924 
	C137.711609,59.737156 138.841995,56.127121 142.467117,54.261562 
	C146.231125,52.324520 149.820068,54.066826 152.647827,57.207150 
	C156.654922,61.657162 161.039505,65.555656 166.448730,68.417236 
	C175.400421,73.152855 185.006790,70.483513 189.854736,61.610790 
	C192.696793,56.409225 194.568695,51.005669 194.571365,45.029785 
	C194.571655,44.364594 194.626297,43.696442 194.700882,43.034752 
	C195.174240,38.834984 195.642776,34.421017 200.605896,33.132824 
	C205.774017,31.791430 207.905441,35.822319 210.242554,39.318592 
	C213.078964,43.561840 215.047333,48.241920 218.879333,51.997181 
	C229.061829,61.975746 242.000732,59.769405 249.376007,47.734726 
	C251.611023,44.087742 253.016495,39.922977 254.709305,35.955853 
	C256.304352,32.217850 257.715851,28.353575 262.891876,28.692442 
	C267.699310,29.007177 268.907104,32.674221 270.171967,36.392956 
	C272.292755,42.628281 273.027802,49.310738 277.485687,54.751461 
	C286.746826,66.054482 295.965149,63.345219 305.163666,56.314137 
	C309.460175,53.030006 311.755066,48.093441 315.248199,44.135475 
	C317.738831,41.313396 320.410767,40.320107 324.077515,41.159508 
	C327.828827,42.018250 328.517120,44.942932 328.894989,47.910511 
	C329.207092,50.361492 329.026123,52.903965 328.823669,55.386322 
	C328.234802,62.606422 329.882172,69.230141 333.736877,75.347664 
	C336.675598,80.011398 343.705017,82.226860 350.158661,81.168526 
	C357.944946,79.891647 363.774628,75.237434 369.629395,70.654854 
	C372.741608,68.218872 375.904755,67.260109 379.248840,69.132790 
	C382.613647,71.017029 382.892731,74.627411 382.218475,77.995865 
	C381.240814,82.880127 379.296417,87.618301 378.745087,92.528900 
	C377.999786,99.166878 378.152161,105.923691 383.926025,110.883728 
	C391.531036,117.416824 399.886719,116.297554 408.290680,113.007973 
	C411.384338,111.796989 414.327423,110.276978 417.652405,109.680237 
	C421.105652,109.060478 424.324829,109.888321 426.083252,112.693275 
	C427.839691,115.495056 427.071625,118.783424 425.246704,121.666885 
	C422.935822,125.318176 420.348022,128.852325 418.518555,132.737808 
	C414.934113,140.350525 414.005554,147.979050 420.022644,155.094162 
	C424.330811,160.188477 430.296173,160.991943 436.286499,161.249222 
	C440.920959,161.448288 445.589813,160.652176 450.246033,160.613205 
	C453.025635,160.589935 455.930756,160.694489 457.414368,163.983673 
	C458.975830,167.445480 458.406799,170.523468 456.137878,173.295425 
	C454.894165,174.814926 453.336426,176.124115 451.759918,177.316025 
	C446.445618,181.333923 442.609924,186.518219 440.173309,192.614288 
	C436.922272,200.748108 442.470734,211.235046 451.800934,214.411804 
	C456.970398,216.171936 462.416046,217.104507 467.685181,218.594131 
	C471.040802,219.542725 474.641388,220.474899 474.731445,225.066879 
	C474.817413,229.448975 472.596802,232.065491 468.622864,233.773605 
	C462.535889,236.389938 456.687866,239.290802 452.179230,244.583435 
	C446.977509,250.689728 446.153961,258.492004 450.634796,265.096222 
	C453.904724,269.915710 458.019867,273.548798 463.484344,275.705536 
	C466.871246,277.042328 470.184113,278.623291 472.956879,281.068512 
	C476.793274,284.451721 476.178558,289.676331 471.761108,292.193085 
	C468.907440,293.818939 465.726929,293.848267 462.632141,294.447876 
	C455.596252,295.811035 448.909851,297.899261 443.959839,303.739716 
	C439.431793,309.082275 438.519135,316.130554 441.851166,322.193695 
	C444.917389,327.773163 448.967255,332.329956 454.122284,336.117340 
	C459.407227,340.000244 460.314423,344.216919 457.764679,348.416321 
	C455.753754,351.728333 452.633179,351.811523 449.444885,351.657593 
	C445.625519,351.473175 441.815582,350.745483 438.006104,350.778564 
	C430.403809,350.844513 422.962158,352.563080 419.195923,359.750366 
	C414.975891,367.803558 417.157806,375.962128 421.605072,383.507629 
	C423.457306,386.650330 425.655334,389.604370 427.325470,392.835724 
	C429.832336,397.686005 426.922729,402.374512 421.444946,402.630676 
	C418.016174,402.791046 414.901306,401.512085 411.845184,400.223877 
	C405.516113,397.556122 399.013000,396.817932 392.282806,398.104828 
	C386.512329,399.208221 382.832062,402.610840 381.158142,408.255096 
	C378.551666,417.044006 380.331116,425.519287 383.570801,433.632843 
	C385.314575,437.999908 383.728241,440.587585 380.873413,443.225739 
	C378.039429,445.844635 375.531921,444.397644 372.755219,442.866760 
	C369.949738,441.320007 367.556458,439.312714 365.084747,437.359558 
	C359.600464,433.025757 353.241425,431.479309 346.402679,431.770966 
	C338.834442,432.093689 332.894531,438.685669 331.382019,447.901642 
	C330.705566,452.023285 330.742676,456.156586 331.012054,460.346069 
	C331.227356,463.694214 331.885498,467.389740 328.770142,470.128235 
	C324.019989,474.303711 318.529419,472.720764 314.388947,465.576996 
	C310.916168,459.585205 305.779114,455.480255 299.835114,452.447601 
	C292.842224,448.879822 283.656403,451.958130 278.951355,459.256592 
	C276.163910,463.580505 273.899261,468.194550 273.015411,473.400848 
	C272.573883,476.001709 271.862518,478.625519 270.814941,481.040131 
	C268.768585,485.756866 262.107239,486.347198 259.047302,482.144867 
	C256.377991,478.478912 254.984375,474.163330 253.359146,469.990814 
	C250.734177,463.251709 245.675644,458.657135 239.363525,455.984406 
	C232.509567,453.082275 226.833496,457.002838 221.695435,461.193054 
	C217.611862,464.523346 215.490005,469.342072 212.795532,473.708527 
	C212.363708,474.408264 212.189697,475.266968 211.758774,475.967438 
	C209.764481,479.209320 207.496292,482.050293 203.039413,481.214966 
	C198.518692,480.367645 197.396957,476.727264 197.027908,473.064545 
	C196.456406,467.392426 195.408401,461.877106 193.555954,456.499725 
	C189.253387,444.009979 174.810196,440.154297 164.240967,448.228668 
	C159.988068,451.477692 156.862381,455.753357 152.651718,459.008636 
	C149.768875,461.237396 147.102707,461.934448 143.960815,460.536987 
	C140.798721,459.130493 139.949188,456.148315 140.005890,453.041840 
	C140.051132,450.564575 140.653519,448.097198 141.013214,445.626129 
	C141.252853,443.979889 141.654007,442.340942 141.718964,440.688324 
	C142.043823,432.425598 141.451263,423.958099 133.346161,419.637207 
	C124.899063,415.133972 116.231354,417.458008 108.189400,422.043823 
	C106.034805,423.272461 103.936737,424.702972 101.630623,425.537689 
	C98.610115,426.631012 95.386681,427.118011 92.740044,424.479706 
	C90.260406,422.007874 90.567513,418.927307 91.575249,416.060303 
	C92.781097,412.629639 94.551132,409.402100 95.925636,406.025055 
	C100.287415,395.308563 99.594704,384.462402 88.667542,378.803040 
	C81.510605,375.096313 73.708878,376.133911 66.301147,378.791473 
	C64.390182,379.477081 62.554710,380.117065 60.561348,380.152374 
	C57.404362,380.208313 54.629528,379.372559 53.088757,376.274628 
	C51.582363,373.245911 52.169502,370.365601 54.116409,367.830872 
	C56.335728,364.941437 58.661991,362.108093 61.185982,359.485382 
	C64.226814,356.325592 65.646294,352.407104 66.484047,348.353790 
	C68.860107,336.857635 63.401154,329.160370 51.241577,326.347534 
	C47.169964,325.405640 43.001659,325.355011 38.819138,325.385986 
	C32.213482,325.434967 29.146444,323.631256 28.350527,319.182404 
	C27.425608,314.012543 30.781570,311.181122 34.701981,309.008240 
	C41.704468,305.127106 47.688496,300.378998 50.149734,292.339905 
	C52.432972,284.882233 50.255302,277.912842 43.922451,273.339172 
	C39.753422,270.328247 35.336258,267.667969 30.137753,266.696320 
	C27.670414,266.235138 25.278465,265.506287 23.116224,264.187744 
	C18.590624,261.428009 18.378397,254.928238 22.764734,252.159500 
	C24.430071,251.108292 26.240005,250.286163 28.360100,249.277832 
z"/>
<path fill="#010103" opacity="1.000000" stroke="none" 
	d="
M68.034821,239.503799 
	C67.841476,239.208847 67.838074,238.958923 67.770737,238.339569 
	C68.287445,221.670212 72.835724,206.161102 78.529617,191.157486 
	C83.281464,178.636215 89.651604,166.687958 97.549255,155.245483 
	C97.787155,154.931900 97.937027,154.907104 97.919472,154.833206 
	C103.764572,146.130051 110.446495,138.173950 118.031143,130.613068 
	C118.373787,130.548065 118.491096,130.511261 118.519058,130.456512 
	C124.551514,122.141792 133.137650,116.783554 140.957428,110.581970 
	C144.437943,107.821693 148.203156,105.412605 152.409119,103.124229 
	C152.626205,102.848083 152.829636,102.881203 152.853119,102.780853 
	C168.096268,92.843834 184.784470,86.228302 202.157013,81.644661 
	C214.260117,78.451332 226.735641,76.527382 239.329941,76.006180 
	C256.859863,75.280739 273.977417,77.520897 291.106903,81.511726 
	C317.733856,87.715279 341.002075,100.018433 362.093842,117.032486 
	C374.603180,127.123405 385.735931,138.557480 394.813080,151.760880 
	C403.454376,164.330200 411.249634,177.373886 416.364441,192.008987 
	C419.655640,201.426208 423.112183,210.791916 424.857880,220.551544 
	C427.653534,236.180908 429.509338,251.871628 428.400787,267.947357 
	C427.363495,282.989441 424.321808,297.484344 420.011749,311.772461 
	C416.079681,324.807465 410.242767,337.019257 403.355225,348.815460 
	C395.924255,361.542358 387.155121,373.111389 376.461029,383.764343 
	C376.218781,384.078369 376.066925,384.089478 376.078796,384.164673 
	C365.259033,395.315094 353.214905,404.880096 339.830322,412.660950 
	C330.074921,418.332092 319.899475,423.147095 309.299896,427.143250 
	C298.851959,431.082306 288.032990,433.762604 277.143799,435.398499 
	C264.318054,437.325348 251.359451,438.684357 238.176529,437.285980 
	C228.789490,436.290222 219.330505,436.140289 210.045425,434.053833 
	C193.983780,430.444611 178.690155,425.029572 163.946655,417.511108 
	C149.464462,410.125977 136.811234,400.442444 124.432831,390.184753 
	C122.852356,388.875061 122.212051,386.849609 120.220421,385.455933 
	C119.914658,385.218353 119.917694,385.080170 119.848694,385.084167 
	C104.251434,370.249084 92.584213,352.687225 83.365677,333.404907 
	C75.247742,316.424774 70.301804,298.559326 67.897263,279.890320 
	C66.213249,266.815613 66.238403,253.785431 67.414322,240.317596 
	C67.497215,239.929459 67.721619,239.765320 67.778854,239.638626 
	C67.836082,239.511932 68.224777,239.548843 68.034821,239.503799 
z"/>
<path fill="#C463DD" opacity="1.000000" stroke="none" 
	d="
M376.547729,384.031006 
	C377.817780,379.876770 381.702423,377.539185 384.414246,374.252075 
	C394.372040,362.181946 402.882629,349.317078 409.780945,335.207825 
	C423.614136,306.914673 429.498322,277.078613 427.602692,245.839828 
	C426.462524,227.050888 422.334656,208.754913 415.423279,191.080276 
	C410.132996,177.551239 403.311096,164.880493 394.980988,153.138870 
	C385.962036,140.426331 375.303009,129.117157 363.282990,118.994644 
	C348.806641,106.803551 332.947479,97.050247 315.515381,89.980164 
	C289.881439,79.583572 263.135406,74.672951 235.479309,76.872986 
	C208.040115,79.055763 181.906799,86.124207 158.064560,100.435280 
	C156.646301,101.286583 155.082199,101.894875 153.231293,102.648376 
	C158.647186,96.922562 166.022415,93.716721 173.297729,90.661888 
	C184.295822,86.043900 195.532623,81.839653 207.289032,79.558372 
	C217.685913,77.540886 228.086548,75.384140 238.753021,75.054871 
	C256.442719,74.508820 273.695160,76.578278 291.044373,80.521034 
	C320.717285,87.264442 345.946655,101.552193 368.678680,121.226776 
	C382.515656,133.202698 394.101990,147.042236 403.422607,162.622437 
	C409.003906,171.952011 413.776184,181.781189 417.560883,192.165848 
	C420.638916,200.611420 423.806335,209.094147 425.441315,217.782578 
	C428.622986,234.690018 431.484528,251.730530 429.256653,269.170258 
	C428.228180,277.220856 427.961792,285.334534 426.132690,293.324585 
	C421.436554,313.838501 414.228851,333.257172 403.164215,351.270844 
	C395.759338,363.326263 387.884125,374.880524 376.547729,384.031006 
z"/>
<path fill="#C463DD" opacity="1.000000" stroke="none" 
	d="
M119.949310,385.560242 
	C128.084564,391.868134 135.740814,399.119019 144.497253,405.085480 
	C158.962311,414.941772 174.346390,422.813141 190.978088,428.296387 
	C217.841400,437.152771 245.372879,439.053650 273.211212,435.359619 
	C293.212128,432.705597 312.250519,426.509949 330.245148,417.108856 
	C341.740631,411.103180 352.369781,403.870239 362.538086,395.939941 
	C367.068512,392.406647 370.692749,387.767151 375.777100,384.344177 
	C373.706055,389.843658 368.737427,393.119415 364.366913,396.811737 
	C349.017059,409.779816 331.806793,419.955566 313.120728,427.026459 
	C296.228241,433.418640 278.546478,436.983093 260.312103,438.229095 
	C240.888000,439.556396 221.773499,438.258209 203.012619,433.713409 
	C186.061493,429.606995 169.674164,423.163361 154.739426,414.245758 
	C143.316330,407.425018 132.546799,399.220856 122.745895,390.009644 
	C121.573776,388.908051 120.892662,387.284027 119.949310,385.560242 
z"/>
<path fill="#C463DD" opacity="1.000000" stroke="none" 
	d="
M67.177849,240.106781 
	C67.263924,253.367905 66.474358,266.823517 68.366943,280.210083 
	C71.384499,301.553864 77.578514,321.827576 87.766861,340.954712 
	C96.331711,357.033905 107.047264,371.389526 119.707039,384.767700 
	C113.597763,382.036957 109.686508,376.415161 105.599609,371.370605 
	C96.173805,359.735992 88.297226,346.967560 82.050880,333.323547 
	C72.980255,313.510284 67.624054,292.736053 65.912636,270.934387 
	C65.205780,261.929901 64.966072,253.041595 66.033852,244.097153 
	C66.189507,242.793259 65.882896,241.405396 67.177849,240.106781 
z"/>
<path fill="#C463DD" opacity="1.000000" stroke="none" 
	d="
M97.456665,154.988541 
	C95.427505,161.357239 90.995804,166.618774 87.865036,172.642441 
	C77.273026,193.021744 70.360023,214.429047 67.909958,237.640366 
	C65.846169,230.423615 68.117409,223.118896 69.796814,216.023178 
	C72.256096,205.632416 75.759743,195.524033 79.971176,185.590698 
	C84.076790,175.906937 89.153221,166.903381 94.587486,158.007355 
	C95.280769,156.872421 95.820335,155.640259 97.456665,154.988541 
z"/>
<path fill="#C463DD" opacity="1.000000" stroke="none" 
	d="
M152.273529,102.837677 
	C148.978867,106.745850 144.051971,108.886353 139.875443,112.084198 
	C132.574448,117.674362 125.622513,123.610489 118.834732,130.249069 
	C119.919823,124.517326 125.016098,121.900940 129.145569,118.501663 
	C136.280121,112.628654 143.457672,106.784218 152.273529,102.837677 
z"/>
<path fill="#C463DD" opacity="1.000000" stroke="none" 
	d="
M118.030655,130.513062 
	C111.437126,138.269257 104.737259,146.187057 98.199524,154.622955 
	C100.738045,147.445938 105.969177,141.752335 111.195526,136.223679 
	C113.101921,134.207016 114.502136,131.195984 118.030655,130.513062 
z"/>
<path fill="#C463DD" opacity="1.000000" stroke="none" 
	d="
M67.874481,239.475586 
	C67.844872,239.458755 68.206604,239.604294 68.206604,239.604294 
	C68.206604,239.604294 68.094116,239.308624 67.965103,239.410278 
	C67.836082,239.511932 67.904083,239.492432 67.874481,239.475586 
z"/>
<path fill="#DF61ED" opacity="1.000000" stroke="none" 
	d="
M132.780975,353.577179 
	C157.768311,355.511658 182.290070,357.473572 206.817001,359.368164 
	C212.780548,359.828796 218.769073,359.969879 224.730835,360.448242 
	C227.959503,360.707336 230.696533,364.792633 230.048706,367.836945 
	C229.600876,369.941437 227.971680,369.113251 226.850189,369.090149 
	C222.364777,368.997772 217.872208,368.870209 213.401382,368.515106 
	C180.256561,365.882568 147.119980,363.145325 113.971313,360.562836 
	C107.881844,360.088440 105.425156,354.915070 101.127052,352.145844 
	C101.241547,351.730469 101.356041,351.315125 101.470535,350.899750 
	C111.752785,351.793121 122.035042,352.686493 132.780975,353.577179 
z"/>
<path fill="#DF61ED" opacity="1.000000" stroke="none" 
	d="
M341.595581,353.822205 
	C355.132019,353.727234 368.100433,351.797699 382.267426,350.853424 
	C376.772278,356.350800 372.591553,360.501892 365.002075,360.984802 
	C329.164642,363.265076 293.373596,366.270630 257.557709,368.905273 
	C255.968689,369.022125 252.871429,370.698700 252.872421,367.551605 
	C252.873260,364.884216 252.179230,360.796722 257.072906,360.461456 
	C267.856445,359.722687 278.636017,358.919464 289.410980,358.063934 
	C306.655304,356.694733 323.894592,355.261749 341.595581,353.822205 
z"/>
<path fill="#DF61ED" opacity="1.000000" stroke="none" 
	d="
M162.938553,376.769623 
	C155.530365,376.141052 148.581268,375.403839 141.612793,375.007721 
	C136.235458,374.702118 133.896088,370.177917 130.535538,367.249908 
	C128.777069,365.717743 131.280304,365.280304 132.452362,365.371399 
	C137.589157,365.770630 142.710251,366.367981 147.844742,366.802094 
	C172.520432,368.888306 197.198944,370.940796 221.875183,373.020416 
	C223.692734,373.173584 225.503357,373.422913 227.311722,373.668030 
	C230.337860,374.078217 233.169327,378.048523 232.570892,381.023468 
	C232.082947,383.449066 230.192688,382.377563 228.949951,382.270844 
	C212.724335,380.877472 196.509796,379.355499 180.285690,377.943939 
	C174.663177,377.454742 169.021973,377.180359 162.938553,376.769623 
z"/>
<path fill="#DF61ED" opacity="1.000000" stroke="none" 
	d="
M295.825348,370.120117 
	C314.928864,368.458954 333.582153,366.842499 352.235443,365.226074 
	C348.570831,370.330536 345.505096,374.791321 338.479431,375.180969 
	C320.546967,376.175507 302.669830,378.157379 284.767700,379.711670 
	C274.660248,380.589203 264.550568,381.447693 254.433105,382.196167 
	C252.904572,382.309265 249.975769,383.577332 250.254532,380.777710 
	C250.500610,378.306274 249.663269,374.282135 254.118515,373.803436 
	C260.900665,373.074707 267.672363,372.063599 274.474762,371.760010 
	C281.467468,371.447906 288.420776,370.858246 295.825348,370.120117 
z"/>
<path fill="#DF61ED" opacity="1.000000" stroke="none" 
	d="
M276.700439,392.418396 
	C268.139679,393.225647 260.041199,394.038269 251.931458,394.715637 
	C250.413422,394.842407 247.384094,396.050598 248.147430,392.956451 
	C248.721451,390.629852 246.719406,386.401093 251.666779,386.053162 
	C266.066284,385.040527 280.463867,383.996643 294.856262,382.887939 
	C301.811493,382.352081 308.750305,381.605377 315.703156,381.035126 
	C317.925964,380.852844 320.210541,380.142029 322.883911,381.286072 
	C318.386658,385.967529 314.513000,390.172455 307.477722,390.480743 
	C297.372009,390.923584 287.307404,392.350616 276.700439,392.418396 
z"/>
<path fill="#CE59BF" opacity="1.000000" stroke="none" 
	d="
M191.116364,276.741333 
	C190.770676,275.776489 190.539307,275.250793 190.538071,274.078003 
	C192.006256,272.967804 193.388596,273.220093 193.871658,274.254211 
	C195.869080,278.530426 198.457779,278.217072 201.900085,275.625366 
	C204.783783,277.171875 206.185684,279.490936 207.125580,282.572113 
	C207.212341,283.450867 207.170609,283.948792 206.951035,284.790955 
	C203.674957,289.630646 205.283981,294.092560 207.186218,298.369751 
	C209.231689,302.968964 212.546707,306.747162 215.839645,310.527679 
	C218.825317,313.955414 223.390289,312.637604 227.195114,314.614258 
	C229.583588,315.271881 230.724365,316.868622 232.040970,318.795441 
	C234.425140,323.096588 238.244873,325.957794 240.082581,330.613892 
	C239.040512,335.195587 237.635498,335.883148 230.191223,335.572388 
	C229.689026,335.332794 229.503021,335.219452 229.087708,334.896851 
	C228.510010,334.271820 228.276245,333.731140 227.387268,333.518311 
	C226.300812,333.066528 225.796051,332.459045 225.715591,331.259460 
	C226.088348,330.617065 226.498306,330.532776 226.908905,330.449890 
	C226.254074,330.429626 225.604706,330.356171 224.654236,330.122894 
	C222.417984,328.461090 221.402725,326.168396 219.593033,324.115417 
	C219.451172,323.815552 219.255997,323.690704 219.251434,323.574951 
	C217.740082,322.537506 217.536072,320.682983 216.254974,319.217224 
	C206.468887,305.822510 198.027267,291.991364 191.116364,276.741333 
z"/>
<path fill="#A438AB" opacity="1.000000" stroke="none" 
	d="
M239.244690,331.342926 
	C236.451035,327.539764 233.877808,324.095520 231.149994,320.352417 
	C231.572540,316.107513 228.028778,312.009369 231.500763,308.050415 
	C231.848969,307.653381 230.108215,306.034180 229.426483,304.923035 
	C228.385696,303.226593 227.416855,301.507477 228.765945,299.229065 
	C231.579605,301.667023 234.128784,304.323395 237.096893,307.472046 
	C237.515839,307.964325 237.889282,308.109009 238.000793,308.275330 
	C238.140518,308.863861 238.358902,309.149384 238.918045,309.081116 
	C239.518448,308.951050 239.942200,309.056915 240.662903,309.307739 
	C243.478806,310.452911 245.730148,309.580658 248.079941,308.653778 
	C252.524139,306.900757 254.861816,308.722809 254.071075,313.475464 
	C253.575958,316.451385 253.141495,319.308533 254.318970,322.600128 
	C253.899399,327.689117 250.485794,330.494904 247.291367,333.104553 
	C244.673599,335.243134 241.497971,335.376740 239.244690,331.342926 
z"/>
<path fill="#C463DD" opacity="1.000000" stroke="none" 
	d="
M215.224609,393.416962 
	C201.716400,391.831787 188.557388,391.840240 175.468811,390.616547 
	C168.338196,389.949921 164.041458,386.345520 159.517883,381.138367 
	C162.359055,380.186523 164.790756,380.742035 167.174316,380.929688 
	C188.224213,382.586731 209.260574,384.441193 230.326981,385.846710 
	C236.136093,386.234283 234.210297,390.563538 234.502914,393.119446 
	C234.920685,396.768738 231.567017,394.650726 230.100006,394.613129 
	C225.287476,394.489746 220.487503,393.876465 215.224609,393.416962 
z"/>
<path fill="#235789" opacity="1.000000" stroke="none" 
	d="
M280.501038,166.345764 
	C280.352051,165.896057 280.280518,165.706146 280.128479,165.222717 
	C281.065094,160.792191 281.459076,156.587677 281.659241,152.066544 
	C286.266205,151.610428 286.309479,156.104691 288.931152,158.366516 
	C291.949738,163.745499 294.204651,169.021271 295.367279,175.131836 
	C298.369995,185.571014 294.296143,195.497070 294.900635,205.501541 
	C295.024597,207.553345 294.658661,209.930649 291.429138,210.224121 
	C289.399933,201.459290 287.968475,192.852173 286.042450,184.357178 
	C284.765228,178.723709 282.779877,173.250778 281.063446,167.316452 
	C280.869720,166.819809 280.724121,166.712692 280.501038,166.345764 
z"/>
<path fill="#C924A8" opacity="1.000000" stroke="none" 
	d="
M229.024719,298.996643 
	C228.806732,302.364471 230.896118,304.499329 233.049057,306.585876 
	C235.137985,308.610382 235.726120,310.384644 232.405838,311.751190 
	C229.319290,313.021576 229.294189,314.185089 232.609238,315.094513 
	C233.834244,315.430542 234.792267,316.124115 234.772903,317.442902 
	C234.745255,319.326538 233.367981,319.869110 231.369904,320.025879 
	C229.961502,318.743225 228.927582,317.432953 227.595154,316.026367 
	C224.803024,314.774994 223.188126,312.739349 221.722519,310.507172 
	C217.003235,303.319458 212.817749,295.771851 207.302185,289.118378 
	C206.450684,288.091156 205.817093,286.916443 206.001846,285.126526 
	C206.047318,284.396027 206.057831,284.027283 206.079330,283.382050 
	C208.778000,281.688080 213.007523,284.486084 214.836136,279.763000 
	C215.697159,279.091309 216.360870,278.857666 217.429672,279.019196 
	C217.755447,279.172424 217.852997,279.214539 217.863251,279.266663 
	C218.075592,279.371399 218.277710,279.424072 218.422897,279.784790 
	C218.451050,280.285797 218.536133,280.478729 218.730316,280.968567 
	C219.280991,281.479370 219.505630,281.823883 219.447189,282.661804 
	C221.833710,288.526825 223.554092,294.458923 228.748016,298.734375 
	C228.992111,298.971039 229.019012,298.982605 229.024719,298.996643 
z"/>
<path fill="#1D6393" opacity="1.000000" stroke="none" 
	d="
M291.045685,210.485016 
	C293.543182,209.299500 292.940613,207.208145 292.981140,205.472946 
	C293.120300,199.514038 292.576477,193.559265 294.737152,187.719437 
	C296.238312,183.662155 293.539124,179.635162 293.812195,175.250198 
	C296.907654,174.296356 297.183319,177.133743 298.827576,178.711700 
	C299.612976,180.509949 299.394226,182.067719 299.626038,183.946732 
	C299.676514,185.774124 299.664398,187.233902 300.799500,188.812531 
	C301.078400,189.665939 301.144287,190.176056 301.095428,191.086212 
	C299.517670,196.221436 301.623749,201.063095 300.735718,205.789627 
	C298.173859,219.425034 297.161713,233.279602 294.790131,246.938858 
	C294.588837,248.098389 294.167511,249.175842 292.932800,250.207275 
	C288.749207,250.361740 289.324951,246.919769 288.125854,244.383942 
	C288.033875,241.074097 288.956940,238.344818 290.089966,235.275208 
	C290.679077,233.203369 290.387238,231.380524 291.032166,229.353729 
	C291.058716,222.998489 291.054260,216.974869 291.045685,210.485016 
z"/>
<path fill="#8B47B1" opacity="1.000000" stroke="none" 
	d="
M253.352722,323.220398 
	C250.713577,320.026367 250.710098,316.830872 252.286209,313.462830 
	C252.829865,312.301086 253.428665,310.904083 252.324722,309.790649 
	C251.121445,308.577057 249.901932,309.700684 248.735016,310.138000 
	C246.242584,311.072083 243.762329,311.709808 241.126038,309.769348 
	C241.798248,309.373901 242.636597,309.295074 243.885986,309.123840 
	C244.350708,308.863129 244.404419,308.694824 244.705566,308.621338 
	C245.205948,308.593536 245.458878,308.470917 246.100433,308.184753 
	C246.496033,307.845184 246.502991,307.669098 246.773163,307.517151 
	C247.036377,307.541229 247.215652,307.255615 247.362762,307.173279 
	C247.503235,306.897949 247.496597,306.704956 247.776520,306.554138 
	C248.063080,306.596283 248.406677,306.235016 248.673340,306.060822 
	C249.039047,305.745331 249.138107,305.604034 249.448792,305.313690 
	C250.029587,304.294525 251.189575,304.394165 251.828384,303.341431 
	C252.133820,302.884064 252.214935,302.664948 252.623245,301.917419 
	C252.950424,301.389038 253.134476,301.169128 253.270355,301.123291 
	C253.442688,300.880371 253.479156,300.683319 253.811859,300.435425 
	C254.108124,300.384583 254.165924,300.191742 254.255371,300.145569 
	C254.401138,299.895325 254.457443,299.691284 254.810852,299.375122 
	C255.107925,299.263062 255.131287,299.125153 255.199631,299.110352 
	C255.351105,298.891327 255.434235,298.687103 255.802719,298.315796 
	C256.088074,298.148651 256.040619,298.071350 256.084106,298.084167 
	C258.407806,295.281281 260.612671,292.329559 265.278564,293.377899 
	C269.698242,298.522369 268.706696,303.989014 266.785645,309.318359 
	C265.033264,314.179596 261.214722,317.712891 257.577271,321.761597 
	C256.150513,322.613861 255.082352,323.382660 253.352722,323.220398 
z"/>
<path fill="#2F82C4" opacity="1.000000" stroke="none" 
	d="
M302.157043,271.457336 
	C299.858398,274.551544 297.986359,277.523743 294.915161,279.931030 
	C294.568085,280.478760 294.498474,280.835571 294.157318,281.312805 
	C293.915100,281.439087 293.786713,281.841827 293.452576,282.113647 
	C293.006561,282.540680 292.894745,282.695831 292.448578,283.089844 
	C292.114258,283.328705 291.964874,283.698090 291.798950,283.808350 
	C290.906586,284.740204 289.829346,285.239044 289.177856,286.582153 
	C288.949554,286.824738 288.953522,286.953033 288.889374,286.950989 
	C284.534302,288.468475 282.098175,287.053406 281.259460,282.495636 
	C280.415314,277.908508 282.336182,273.767578 283.520325,269.088684 
	C285.746796,264.871887 288.162323,261.202850 289.750244,256.674408 
	C291.752014,254.705032 291.828674,251.196793 295.662537,251.508850 
	C297.767303,256.464325 297.680695,261.544830 297.287781,266.476440 
	C296.989105,270.225677 298.583832,270.165436 301.500549,269.790161 
	C302.225128,270.237244 302.395966,270.668762 302.157043,271.457336 
z"/>
<path fill="#B651B7" opacity="1.000000" stroke="none" 
	d="
M252.939026,323.428894 
	C253.839188,322.473206 254.687286,321.861755 255.810516,321.101959 
	C257.795776,322.609558 256.846100,324.212524 255.991364,325.819885 
	C254.693802,328.260010 252.942825,330.444794 251.804871,333.400146 
	C251.553513,334.244019 251.464127,334.737671 251.137115,335.490692 
	C250.857742,335.742523 250.801987,335.824768 250.770630,335.863281 
	C250.002213,336.996765 249.544601,338.196533 249.138916,339.718933 
	C248.891541,339.929321 248.735474,340.356995 248.657623,340.570923 
	C248.554550,341.020538 248.529297,341.256256 248.211639,341.694336 
	C247.919235,341.896729 247.926300,341.937012 247.906631,341.942535 
	C247.128250,343.380066 246.645309,344.901550 246.195587,346.773315 
	C245.982315,347.043579 245.846512,347.438293 245.797394,347.641144 
	C245.536972,348.630768 245.220291,349.381409 244.946106,350.146088 
	C244.349701,351.809296 244.018860,353.762634 241.710663,353.900940 
	C239.474213,354.034973 238.688690,352.400604 237.979828,350.678375 
	C237.286865,348.994904 235.920013,347.780823 234.651642,346.032532 
	C234.468231,345.694183 234.290283,345.319305 234.185257,345.140381 
	C233.176315,343.813782 232.182617,342.735382 231.236649,341.225037 
	C231.071274,340.957581 231.012848,340.978607 231.034836,340.956512 
	C230.872711,340.790649 230.688599,340.646912 230.353149,340.187195 
	C230.201797,339.871185 230.149017,339.873047 230.151505,339.846741 
	C229.753662,339.624878 229.539642,339.304718 229.477570,338.548401 
	C229.053940,336.983215 226.881393,336.297424 228.526505,334.335205 
	C232.421707,334.256134 236.157227,334.805420 239.004425,331.328979 
	C243.986099,335.207550 246.891815,331.866272 249.971008,328.225189 
	C251.156815,326.822998 252.397247,325.580444 252.939026,323.428894 
z"/>
<path fill="#496CBB" opacity="1.000000" stroke="none" 
	d="
M284.869690,267.650513 
	C284.563568,272.592590 282.796906,276.965973 282.994629,281.671814 
	C283.136627,285.051758 284.479736,287.002441 288.441864,286.949646 
	C284.713989,293.107513 279.315308,298.151337 274.095337,303.765045 
	C271.094757,303.343170 271.426361,301.095367 271.444427,299.263031 
	C271.488007,294.846771 271.365265,290.429535 271.504456,285.623016 
	C271.476410,284.024292 271.767517,282.825104 272.529449,281.959290 
	C276.508972,277.437225 279.189636,272.130005 282.245575,266.663940 
	C283.444855,266.386658 284.136749,266.676117 284.869690,267.650513 
z"/>
<path fill="#435AA0" opacity="1.000000" stroke="none" 
	d="
M283.342194,266.706696 
	C281.874603,273.972961 277.022217,278.784454 273.052887,284.473846 
	C271.565247,288.631134 269.260162,291.721985 265.249969,293.743469 
	C261.732727,294.307434 259.342194,296.342926 256.435669,298.033691 
	C263.314941,287.661285 270.858124,277.461700 277.199280,266.463745 
	C278.681976,263.892181 280.059631,261.260071 281.740082,258.453491 
	C285.011475,260.459045 285.273987,263.240143 283.342194,266.706696 
z"/>
<path fill="#6F61BD" opacity="1.000000" stroke="none" 
	d="
M265.057526,294.160950 
	C266.162201,289.852539 270.167969,288.298584 272.707062,285.010529 
	C273.128937,290.980835 273.265869,297.154236 273.597900,303.622986 
	C265.996979,313.303925 258.580963,322.964630 252.156372,333.760254 
	C251.813126,334.216217 251.685516,334.411346 251.266159,334.413574 
	C250.818436,329.307556 255.766205,326.459625 256.059570,321.335693 
	C258.553589,318.034882 261.215912,315.256531 263.446625,312.166565 
	C267.397034,306.694489 267.085052,300.644409 265.057526,294.160950 
z"/>
<path fill="#7F136F" opacity="1.000000" stroke="none" 
	d="
M217.796509,278.777039 
	C217.361267,279.330383 216.967087,279.488312 216.364868,279.704468 
	C211.612076,277.372864 210.850006,272.492432 209.029068,268.438965 
	C207.639420,265.345490 206.810318,261.924408 206.241241,258.122742 
	C206.210770,256.970184 206.041138,256.239410 205.536621,255.198456 
	C203.840424,251.431320 203.258209,247.852173 203.611572,243.742310 
	C205.743973,236.951324 210.637878,233.079666 216.369354,229.490601 
	C217.240097,229.220261 217.753998,229.218124 218.615936,229.510666 
	C219.095566,229.911118 219.227737,230.134720 219.194580,230.711090 
	C219.029266,231.063889 219.004425,231.006226 219.035492,231.010666 
	C218.791016,231.180450 218.557831,231.392426 218.187683,231.806854 
	C210.168594,241.297989 210.815186,251.985336 213.317474,262.840118 
	C214.527481,268.089020 216.312759,273.205322 217.796509,278.777039 
z"/>
<path fill="#31427B" opacity="1.000000" stroke="none" 
	d="
M282.300873,151.619232 
	C282.891968,156.245331 285.393219,160.808594 280.216125,164.639801 
	C275.112335,153.444565 270.045624,142.021927 264.192352,130.964630 
	C263.506256,129.668503 262.353088,127.834923 263.538666,126.860535 
	C265.045410,125.622139 266.395721,127.404060 267.675171,128.753845 
	C267.305603,130.548416 268.439453,131.058014 269.345459,131.738770 
	C273.736633,135.038101 276.182678,139.974014 279.893402,144.319427 
	C281.241913,146.727890 283.031219,148.617844 282.300873,151.619232 
z"/>
<path fill="#C31C9A" opacity="1.000000" stroke="none" 
	d="
M190.387878,273.852661 
	C185.184204,267.381897 183.539413,259.383850 181.955170,251.805084 
	C179.694595,240.990952 179.140762,229.810303 183.491684,219.064529 
	C186.979919,210.449371 192.957718,204.461182 202.062607,201.168777 
	C202.806824,200.638641 203.274704,200.496506 204.123688,200.947433 
	C205.046112,203.125443 203.901321,204.316544 202.403961,205.738785 
	C191.186691,210.864075 186.080566,219.575577 184.932938,231.191696 
	C183.818878,242.468170 186.721466,253.136047 189.317108,264.272705 
	C189.898560,267.452393 191.890839,269.939148 190.994141,273.347870 
	C190.823349,273.702454 190.544128,273.843933 190.387878,273.852661 
z"/>
<path fill="#C463DD" opacity="1.000000" stroke="none" 
	d="
M222.606873,397.776611 
	C226.160980,398.200287 229.287704,398.359863 232.404556,398.632416 
	C236.040070,398.950317 238.312576,402.373810 237.343842,405.882690 
	C236.685883,408.265961 235.174377,407.229187 233.839142,406.797394 
	C228.068893,404.931458 222.306442,403.041351 216.291443,401.045410 
	C215.315796,400.318420 214.385361,400.600464 213.440155,400.071106 
	C213.307373,399.775909 213.219467,399.707672 213.168732,399.684814 
	C212.922867,399.613312 212.727768,399.564667 212.263962,399.379089 
	C211.995255,399.242126 211.761932,399.208496 211.647995,399.178375 
	C212.196640,396.481171 214.365692,397.670349 215.915298,397.548492 
	C217.988312,397.385529 220.088257,397.443573 222.606873,397.776611 
z"/>
<path fill="#8B47B1" opacity="1.000000" stroke="none" 
	d="
M239.612030,209.598892 
	C247.474335,214.545258 250.467575,222.479492 251.897919,231.674545 
	C253.090286,235.323273 252.298065,238.657272 252.124451,242.294479 
	C251.780228,242.869415 251.728836,243.095856 251.586975,243.658630 
	C251.526245,244.815765 251.529449,245.635391 251.122894,246.606323 
	C250.789627,246.967087 250.721298,247.170151 250.534851,247.672058 
	C250.505203,248.442078 250.504868,248.913956 250.193192,249.654724 
	C249.841110,250.688995 249.724335,251.455048 249.479706,252.588303 
	C249.094513,254.220657 248.873108,256.013336 247.393661,255.843597 
	C245.618179,255.639908 245.492584,253.659592 245.714951,252.245743 
	C246.283401,248.631622 245.650879,244.982986 246.322205,241.005280 
	C247.548584,237.549118 247.059723,234.762833 246.113937,231.559509 
	C244.939087,227.580429 246.045456,223.065506 243.727219,219.107300 
	C243.033463,217.922791 242.446686,216.874680 240.961792,215.987579 
	C240.350769,215.372559 240.080490,214.958893 239.741776,214.161148 
	C239.572906,212.598114 239.029297,211.438080 239.612030,209.598892 
z"/>
<path fill="#3364A3" opacity="1.000000" stroke="none" 
	d="
M283.250275,267.127502 
	C283.228302,264.279816 282.754974,261.635956 282.017761,258.635986 
	C282.050812,258.023132 282.107025,257.795044 282.303009,257.243530 
	C282.487701,256.745239 282.532623,256.570374 282.801147,256.242676 
	C284.002441,253.921021 284.980164,251.752228 286.115692,249.259918 
	C286.413269,248.501846 286.513580,248.058380 286.794586,247.344299 
	C287.075623,246.882706 287.136841,246.682877 287.322754,246.195404 
	C287.468140,245.453644 287.517609,245.002563 287.801361,244.285278 
	C288.010742,244.016403 287.999359,244.003174 288.006958,244.005829 
	C291.129303,244.572205 290.504852,247.565491 291.805786,249.712326 
	C293.980286,252.256546 291.925049,254.184341 291.249023,256.627289 
	C289.782623,260.830414 289.377136,265.096527 285.324615,267.833923 
	C284.524628,267.755585 284.016266,267.501221 283.250275,267.127502 
z"/>
<path fill="#247DB6" opacity="1.000000" stroke="none" 
	d="
M297.991150,179.068817 
	C295.678162,178.653900 296.177063,176.155807 294.309448,175.158356 
	C292.969940,169.573196 289.827789,164.972198 287.986267,159.474060 
	C288.007812,154.033401 288.526093,153.614929 293.540344,154.991364 
	C297.279053,159.472687 301.068878,163.521637 303.681702,168.924591 
	C301.068542,170.795807 299.720428,168.340454 297.577087,167.710068 
	C297.075562,171.592651 300.311096,175.152176 297.991150,179.068817 
z"/>
<path fill="#592B77" opacity="1.000000" stroke="none" 
	d="
M247.733932,239.973099 
	C247.712601,244.743561 248.536346,249.249771 247.184235,253.653168 
	C247.063751,254.045563 246.777222,255.288925 248.023453,254.445953 
	C248.414993,254.181091 248.644684,253.676926 249.150146,253.118927 
	C248.995514,256.376801 247.957718,259.434753 244.342926,262.566101 
	C243.905182,250.751709 245.291611,239.362640 235.359375,231.051727 
	C238.457275,229.115585 240.813629,230.571503 242.691025,232.652496 
	C243.885986,233.977051 245.388855,234.917542 246.714935,236.583420 
	C247.410553,237.746307 247.272919,238.754791 247.733932,239.973099 
z"/>
<path fill="#496CBB" opacity="1.000000" stroke="none" 
	d="
M293.794617,154.791199 
	C291.690460,155.662018 288.564972,154.790283 288.164185,158.857574 
	C285.179657,157.588760 284.819580,154.230072 282.360870,152.089493 
	C281.081329,149.853653 280.086578,147.796021 279.011444,145.399323 
	C278.056854,143.439560 277.507874,141.837051 279.593201,140.187180 
	C285.144714,144.276276 289.258972,149.520432 293.794617,154.791199 
z"/>
<path fill="#247DB6" opacity="1.000000" stroke="none" 
	d="
M311.155426,180.528687 
	C322.258087,198.109482 327.463470,216.791260 322.173401,237.696259 
	C321.715118,238.094559 321.526398,238.223221 321.019897,238.211929 
	C320.566376,237.879929 320.430695,237.687881 320.182678,237.154907 
	C320.042755,236.572510 320.015106,236.331055 319.996704,235.721680 
	C320.058411,234.856674 320.130920,234.362503 320.283630,233.490524 
	C322.770599,218.684357 319.154419,205.263046 313.594360,192.146622 
	C312.194641,188.844620 309.689514,185.920059 310.117737,181.622284 
	C310.416016,181.016754 310.581970,180.798828 311.155426,180.528687 
z"/>
<path fill="#B651B7" opacity="1.000000" stroke="none" 
	d="
M267.222778,400.716492 
	C261.296112,402.712280 255.672363,404.621124 250.004440,406.388306 
	C248.536392,406.846008 246.667114,408.892090 245.461380,406.343811 
	C244.204971,403.688446 246.238388,399.034821 248.578461,398.696930 
	C251.034546,398.342285 253.531189,398.268402 256.576782,398.364563 
	C255.927429,401.306488 252.962128,400.824097 250.385025,402.468994 
	C253.191986,402.093140 255.257431,400.774933 257.323975,400.856964 
	C260.585632,400.986450 258.588593,398.621735 259.670349,397.556427 
	C262.795044,397.394806 265.542511,397.645020 268.295868,397.304169 
	C269.599060,397.142822 271.531219,396.794830 270.317230,399.524475 
	C269.920746,399.682343 269.832367,399.762207 269.785583,399.799072 
	C269.254578,400.862213 268.256134,400.340973 267.222778,400.716492 
z"/>
<path fill="#A438AB" opacity="1.000000" stroke="none" 
	d="
M209.497437,199.386017 
	C219.070984,197.164352 227.579453,200.419601 235.834778,205.711212 
	C236.041855,206.251022 236.082932,206.493820 235.893890,207.026154 
	C230.107285,208.265259 226.136139,204.329391 221.056107,202.675201 
	C219.472519,202.776917 218.251114,202.944687 216.669189,202.569122 
	C215.812057,202.478958 215.319870,202.446457 214.464020,202.341736 
	C212.550629,201.541290 210.990570,200.835648 209.497437,199.386017 
z"/>
<path fill="#435AA0" opacity="1.000000" stroke="none" 
	d="
M279.847717,139.713882 
	C279.219574,141.341492 278.848358,142.765213 278.943542,144.682434 
	C274.788361,140.159088 270.639252,135.263199 266.543945,130.322708 
	C266.452240,130.212097 266.972107,129.594528 267.484070,129.143570 
	C271.751190,132.509598 276.226898,135.384171 279.847717,139.713882 
z"/>
<path fill="#592B77" opacity="1.000000" stroke="none" 
	d="
M234.427399,346.048950 
	C235.641434,346.799683 237.021759,347.754852 237.952026,349.036652 
	C241.996857,354.609894 242.172592,354.621796 245.474380,348.061829 
	C246.385712,349.917114 244.896851,351.676666 244.897934,353.686890 
	C244.898895,355.456787 245.359009,358.035034 243.446869,358.592438 
	C241.179871,359.253326 240.305893,356.597168 239.297607,355.017609 
	C237.521484,352.235107 236.009262,349.284149 234.427399,346.048950 
z"/>
<path fill="#A438AB" opacity="1.000000" stroke="none" 
	d="
M228.983459,298.617737 
	C224.930710,298.460358 223.091125,295.171906 221.868301,292.115845 
	C220.730377,289.271973 219.322113,286.493896 218.595673,283.259796 
	C218.927353,282.785919 219.117355,282.581146 219.558594,282.711700 
	C222.864838,288.119476 225.919830,293.191925 228.983459,298.617737 
z"/>
<path fill="#247DB6" opacity="1.000000" stroke="none" 
	d="
M302.227539,271.625427 
	C301.935272,271.352722 301.948029,270.965240 301.912292,269.980835 
	C301.851166,269.174469 301.838470,268.964966 301.868958,268.441467 
	C302.083771,267.511292 302.378876,266.936981 302.617676,265.994934 
	C303.680725,263.373596 305.522217,261.617310 306.842102,259.119019 
	C307.471130,258.253601 308.014801,257.804779 308.972473,257.315918 
	C309.541199,257.143372 309.777649,257.106628 310.940369,257.517761 
	C309.556702,263.032867 305.786804,267.094086 302.227539,271.625427 
z"/>
<path fill="#8B47B1" opacity="1.000000" stroke="none" 
	d="
M228.815308,334.148438 
	C228.001312,335.607697 229.214890,336.548340 229.705902,337.952209 
	C229.609772,338.321625 229.445312,338.416595 229.112976,338.281433 
	C225.772766,333.536102 222.600418,329.020935 219.439636,324.160645 
	C221.874710,324.671021 222.650177,327.150055 224.583145,328.939453 
	C225.383942,329.404755 225.554764,329.937897 225.789948,330.712646 
	C226.345642,331.625824 226.884430,332.264008 227.691742,333.067566 
	C228.178558,333.292267 228.396851,333.351593 228.739227,333.726746 
	C228.863312,334.042542 228.826263,334.111084 228.815308,334.148438 
z"/>
<path fill="#592B77" opacity="1.000000" stroke="none" 
	d="
M270.267212,399.719788 
	C270.493469,398.426910 270.068054,397.913605 268.716705,397.961395 
	C265.766449,398.065735 262.814636,398.125519 259.417786,398.302551 
	C258.546997,398.668213 258.081818,398.792999 257.233032,398.674744 
	C256.884216,398.554749 256.873047,398.281677 256.882355,398.145660 
	C262.774292,397.283173 268.638245,395.896484 274.840088,397.068817 
	C273.835785,399.271851 272.269958,399.594543 270.267212,399.719788 
z"/>
<path fill="#592B77" opacity="1.000000" stroke="none" 
	d="
M219.401031,230.988373 
	C219.027435,230.880981 219.025604,230.698090 219.023102,230.240845 
	C221.741867,224.651199 231.445206,224.542770 235.353699,230.247833 
	C235.267090,230.712662 235.102936,230.888153 235.020737,230.975830 
	C229.899200,229.411850 224.856216,228.126694 219.401031,230.988373 
z"/>
<path fill="#1270A0" opacity="1.000000" stroke="none" 
	d="
M320.679382,238.030075 
	C320.996094,238.003418 321.449402,237.969666 321.676636,237.967773 
	C321.561890,242.256210 319.254181,245.803772 316.971741,249.565079 
	C316.304749,249.371185 316.186035,249.180267 315.962097,248.667694 
	C315.787781,247.900345 315.768311,247.452515 315.846008,246.672119 
	C316.195892,245.060822 316.820923,243.906387 317.443756,242.409180 
	C317.732330,241.728790 317.907532,241.346146 318.211517,240.676453 
	C318.513306,240.004608 318.717163,239.636200 319.129089,239.021713 
	C319.620148,238.462051 319.966919,238.223114 320.679382,238.030075 
z"/>
<path fill="#592B77" opacity="1.000000" stroke="none" 
	d="
M222.699341,397.757080 
	C219.451599,398.805878 215.757355,397.396545 211.859482,398.831055 
	C210.313156,399.207550 209.245331,398.930786 207.985962,396.817780 
	C213.156647,397.071625 217.758362,397.297546 222.699341,397.757080 
z"/>
<path fill="#C31C9A" opacity="1.000000" stroke="none" 
	d="
M208.953613,199.131897 
	C210.886856,199.026230 212.293045,199.513550 213.821655,200.590729 
	C212.689209,205.013885 210.005478,203.845749 206.998138,202.088959 
	C206.559540,201.051163 206.671875,200.455490 207.475571,199.684662 
	C208.120880,199.370560 208.353989,199.284744 208.953613,199.131897 
z"/>
<path fill="#247DB6" opacity="1.000000" stroke="none" 
	d="
M306.497803,173.596039 
	C308.363037,175.342300 309.795868,177.614410 311.395844,180.181519 
	C311.562958,180.476486 311.227509,180.798645 311.055908,180.955597 
	C310.513397,181.404907 310.089691,181.560272 309.281067,181.525970 
	C307.147949,180.144943 306.349487,178.265900 305.872925,175.834564 
	C305.846680,175.021896 305.923035,174.566376 306.497803,173.596039 
z"/>
<path fill="#592B77" opacity="1.000000" stroke="none" 
	d="
M252.110413,242.390106 
	C251.832153,239.420929 251.832718,236.198853 251.880249,232.531616 
	C253.609680,235.366470 252.805634,238.760757 252.110413,242.390106 
z"/>
<path fill="#235789" opacity="1.000000" stroke="none" 
	d="
M290.786743,229.282898 
	C292.351562,230.928696 290.747986,232.607254 290.450745,234.665009 
	C290.345215,233.132156 290.427765,231.337921 290.786743,229.282898 
z"/>
<path fill="#8B47B1" opacity="1.000000" stroke="none" 
	d="
M216.215118,319.251404 
	C217.716522,319.773407 218.541260,321.227661 219.213638,323.143982 
	C217.374542,322.832672 216.945847,321.124817 216.215118,319.251404 
z"/>
<path fill="#A438AB" opacity="1.000000" stroke="none" 
	d="
M207.554840,199.402557 
	C207.650574,199.838150 207.413376,200.219940 207.095383,200.811996 
	C206.431747,201.654648 205.700150,201.828445 204.524353,201.538727 
	C203.788727,201.289352 203.404449,201.217255 202.728424,201.120941 
	C203.863861,200.054428 205.497696,199.577881 207.554840,199.402557 
z"/>
<path fill="#592B77" opacity="1.000000" stroke="none" 
	d="
M246.282593,346.855225 
	C245.907883,345.323700 246.076065,343.669586 247.578583,342.120850 
	C248.084198,343.695618 247.360779,345.188751 246.282593,346.855225 
z"/>
<path fill="#592B77" opacity="1.000000" stroke="none" 
	d="
M249.175125,339.754028 
	C248.838501,338.510559 248.965652,337.148438 250.416779,336.001373 
	C250.963135,337.354065 250.121582,338.435272 249.175125,339.754028 
z"/>
<path fill="#496CBB" opacity="1.000000" stroke="none" 
	d="
M289.226501,286.719727 
	C288.954590,285.397949 289.260376,284.186493 291.306946,283.953430 
	C290.923126,284.817322 290.213287,285.716003 289.226501,286.719727 
z"/>
<path fill="#592B77" opacity="1.000000" stroke="none" 
	d="
M231.073929,341.290649 
	C232.391708,341.775818 233.285614,342.964539 234.035126,344.639679 
	C232.568436,344.308350 231.572250,343.191254 231.073929,341.290649 
z"/>
<path fill="#1270A0" opacity="1.000000" stroke="none" 
	d="
M315.259979,251.650879 
	C315.846924,253.011444 315.281281,253.881195 314.012268,254.619797 
	C313.128510,253.966751 313.053314,253.320496 313.362000,252.340210 
	C313.827972,251.715057 314.206573,251.502350 315.259979,251.650879 
z"/>
<path fill="#247DB6" opacity="1.000000" stroke="none" 
	d="
M303.920044,169.082001 
	C304.961700,169.525040 305.711243,170.221008 305.704926,171.894424 
	C305.009583,172.562225 304.546997,172.544022 303.814819,172.171707 
	C303.158264,171.291168 303.091553,170.603470 303.501953,169.588943 
	C303.704315,169.294510 303.847839,169.152557 303.920044,169.082001 
z"/>
<path fill="#1270A0" opacity="1.000000" stroke="none" 
	d="
M313.900635,254.922379 
	C313.853302,256.110687 313.269226,256.956726 312.138794,257.801514 
	C311.866669,257.965576 311.587952,257.821106 311.458862,257.731812 
	C311.186951,257.232269 311.150757,256.811371 311.316284,256.078552 
	C311.799927,255.215439 312.311676,254.849091 313.280579,254.678284 
	C313.602539,254.686661 313.801331,254.843735 313.900635,254.922379 
z"/>
<path fill="#435AA0" opacity="1.000000" stroke="none" 
	d="
M251.788193,303.193298 
	C251.907211,304.190002 251.250076,304.798553 249.941528,305.112793 
	C250.281509,304.537567 250.902603,303.910492 251.788193,303.193298 
z"/>
<path fill="#592B77" opacity="1.000000" stroke="none" 
	d="
M267.264282,400.875488 
	C267.660828,400.495239 268.385315,400.134216 269.424316,399.804565 
	C269.372467,400.896729 268.423706,400.776825 267.264282,400.875488 
z"/>
<path fill="#592B77" opacity="1.000000" stroke="none" 
	d="
M251.123260,246.594009 
	C250.952118,245.994934 251.046249,245.225845 251.318451,244.225861 
	C251.865417,244.822632 251.820663,245.631927 251.123260,246.594009 
z"/>
<path fill="#8B47B1" opacity="1.000000" stroke="none" 
	d="
M237.599640,207.676071 
	C238.488419,207.593277 239.138504,208.021774 239.894043,208.725327 
	C239.999481,209.000381 239.921707,209.084671 239.882797,209.126801 
	C239.547760,209.421539 239.205170,209.573639 238.538513,209.596588 
	C238.089676,209.451233 237.925674,209.350128 237.608154,209.003769 
	C237.423401,208.568115 237.392181,208.377747 237.599640,207.676071 
z"/>
<path fill="#592B77" opacity="1.000000" stroke="none" 
	d="
M213.437561,400.069763 
	C214.099747,399.987427 214.892136,400.198944 215.863129,400.670654 
	C215.217072,400.741730 214.392410,400.552673 213.437561,400.069763 
z"/>
<path fill="#8B47B1" opacity="1.000000" stroke="none" 
	d="
M236.517761,207.290543 
	C235.927658,206.887161 235.944534,206.711563 235.981110,206.272095 
	C236.550797,206.205292 237.100830,206.402359 237.744598,206.882095 
	C237.838333,207.164764 237.786530,207.204941 237.761719,207.226379 
	C237.532867,207.337967 237.328812,207.428146 236.517761,207.290543 
z"/>
<path fill="#592B77" opacity="1.000000" stroke="none" 
	d="
M250.166382,249.739349 
	C249.998566,249.408051 250.039246,248.893127 250.248322,248.174576 
	C250.402786,248.499207 250.388824,249.027466 250.166382,249.739349 
z"/>
<path fill="#592B77" opacity="1.000000" stroke="none" 
	d="
M250.915649,334.471619 
	C250.974426,334.220642 251.450302,334.083527 251.695511,334.052307 
	C251.756088,334.532562 251.571442,335.044067 251.122284,335.649048 
	C250.857452,335.402557 250.857162,335.062592 250.915649,334.471619 
z"/>
<path fill="#592B77" opacity="1.000000" stroke="none" 
	d="
M228.975647,338.344971 
	C228.945114,338.051300 229.364319,338.121460 229.569275,338.174072 
	C229.898483,338.573212 230.022751,338.919800 230.150513,339.543396 
	C229.771393,339.426514 229.388794,339.032562 228.975647,338.344971 
z"/>
<path fill="#1D6393" opacity="1.000000" stroke="none" 
	d="
M286.767944,247.213287 
	C286.881592,247.572968 286.748749,248.063400 286.444702,248.745117 
	C286.356171,248.405594 286.438812,247.874817 286.767944,247.213287 
z"/>
<path fill="#1D6393" opacity="1.000000" stroke="none" 
	d="
M287.807098,244.190826 
	C287.920715,244.509872 287.830719,245.003357 287.594055,245.702301 
	C287.499451,245.393600 287.551453,244.879425 287.807098,244.190826 
z"/>
<path fill="#7F136F" opacity="1.000000" stroke="none" 
	d="
M219.838043,282.754456 
	C219.631119,283.047760 219.452408,283.048492 219.005539,283.019958 
	C218.736023,282.605042 218.734665,282.219421 218.786362,281.549622 
	C219.543182,281.354034 219.776016,281.846771 219.838043,282.754456 
z"/>
<path fill="#496CBB" opacity="1.000000" stroke="none" 
	d="
M294.105377,281.354187 
	C294.060150,281.088257 294.205170,280.737396 294.481354,280.251770 
	C294.506897,280.501068 294.401276,280.885193 294.105377,281.354187 
z"/>
<path fill="#1270A0" opacity="1.000000" stroke="none" 
	d="
M316.824188,249.885834 
	C316.742432,250.489731 316.527313,251.010010 316.088013,251.705414 
	C315.863831,251.880554 315.627228,251.651001 315.508789,251.536377 
	C315.297974,250.818314 315.473663,250.304550 316.165588,249.756042 
	C316.424011,249.635086 316.690826,249.802216 316.824188,249.885834 
z"/>
<path fill="#31427B" opacity="1.000000" stroke="none" 
	d="
M280.426392,166.275879 
	C280.613373,166.225906 280.764984,166.399261 280.946869,166.766479 
	C280.753448,166.857697 280.558075,166.703995 280.426392,166.275879 
z"/>
<path fill="#247DB6" opacity="1.000000" stroke="none" 
	d="
M305.932983,172.067947 
	C306.344604,172.097977 306.598907,172.302414 306.855774,172.833191 
	C306.930176,173.070175 306.794983,173.198425 306.727356,173.262543 
	C306.659729,173.326645 306.210846,173.389694 306.011169,173.281815 
	C305.811493,173.173935 305.601715,172.771210 305.639252,172.547302 
	C305.676788,172.323395 305.847504,172.153015 305.932983,172.067947 
z"/>
<path fill="#592B77" opacity="1.000000" stroke="none" 
	d="
M212.109222,399.446716 
	C212.292725,398.990936 212.595917,398.983795 213.011414,399.441315 
	C213.117981,399.661926 212.668854,399.797211 212.668854,399.797211 
	C212.668854,399.797211 212.223190,399.651306 212.109222,399.446716 
z"/>
<path fill="#435AA0" opacity="1.000000" stroke="none" 
	d="
M282.852264,256.169800 
	C282.942871,256.304504 282.828827,256.500458 282.562683,256.798889 
	C282.354279,256.637451 282.433319,256.414001 282.852264,256.169800 
z"/>
<path fill="#435AA0" opacity="1.000000" stroke="none" 
	d="
M254.896576,299.308716 
	C255.036316,299.523560 254.895264,299.738525 254.514801,300.003662 
	C254.291458,299.774811 254.404938,299.526489 254.896576,299.308716 
z"/>
<path fill="#592B77" opacity="1.000000" stroke="none" 
	d="
M218.240906,231.877899 
	C218.145828,231.659363 218.352600,231.414581 218.847626,231.121704 
	C218.954880,231.340042 218.757172,231.599380 218.240906,231.877899 
z"/>
<path fill="#C31C9A" opacity="1.000000" stroke="none" 
	d="
M190.888702,276.299896 
	C191.002029,276.302185 191.098602,276.376373 191.074493,276.401062 
	C191.050369,276.425751 190.775360,276.297607 190.888702,276.299896 
z"/>
<path fill="#7F136F" opacity="1.000000" stroke="none" 
	d="
M218.456818,279.897156 
	C218.097748,280.069244 217.925705,279.928253 217.861664,279.494263 
	C218.222092,279.228271 218.446808,279.355835 218.456818,279.897156 
z"/>
<path fill="#496CBB" opacity="1.000000" stroke="none" 
	d="
M293.226715,282.435242 
	C293.118408,282.385498 293.330780,282.178558 293.389099,282.136261 
	C293.447449,282.093964 293.335022,282.485016 293.226715,282.435242 
z"/>
<path fill="#496CBB" opacity="1.000000" stroke="none" 
	d="
M292.197052,283.392761 
	C292.114258,283.328705 292.247986,283.216217 292.269897,283.182068 
	C292.291840,283.147949 292.279846,283.456787 292.197052,283.392761 
z"/>
<path fill="#435AA0" opacity="1.000000" stroke="none" 
	d="
M255.874298,298.228851 
	C256.020081,298.441040 255.871277,298.683929 255.454803,298.986389 
	C255.252853,298.760498 255.383698,298.498352 255.874298,298.228851 
z"/>
<path fill="#592B77" opacity="1.000000" stroke="none" 
	d="
M248.151443,341.802246 
	C247.847122,341.560059 247.929245,341.266510 248.372696,340.900452 
	C248.514404,341.092468 248.449036,341.400146 248.151443,341.802246 
z"/>
<path fill="#435AA0" opacity="1.000000" stroke="none" 
	d="
M253.917526,300.407043 
	C254.036911,300.610382 253.905304,300.792542 253.559753,301.004272 
	C253.361343,300.786316 253.468246,300.570343 253.917526,300.407043 
z"/>
<path fill="#435AA0" opacity="1.000000" stroke="none" 
	d="
M252.810760,301.366943 
	C252.950424,301.389038 252.763992,301.760437 252.659821,301.777588 
	C252.555649,301.794708 252.460770,301.530426 252.460770,301.530426 
	C252.460770,301.530426 252.671082,301.344818 252.810760,301.366943 
z"/>
<path fill="#435AA0" opacity="1.000000" stroke="none" 
	d="
M248.882507,305.801086 
	C248.940002,305.886627 248.878479,305.962616 248.858948,305.975037 
	C248.839432,305.987427 248.825027,305.715546 248.882507,305.801086 
z"/>
<path fill="#435AA0" opacity="1.000000" stroke="none" 
	d="
M247.897430,306.559509 
	C247.986862,306.751556 247.877701,306.878510 247.622742,307.034027 
	C247.399460,306.829315 247.473434,306.639954 247.897430,306.559509 
z"/>
<path fill="#8B47B1" opacity="1.000000" stroke="none" 
	d="
M237.534302,307.824219 
	C237.515839,307.964325 237.209000,307.730072 237.144257,307.660156 
	C237.079529,307.590271 237.344482,307.494202 237.344482,307.494202 
	C237.344482,307.494202 237.552780,307.684082 237.534302,307.824219 
z"/>
<path fill="#435AA0" opacity="1.000000" stroke="none" 
	d="
M246.877853,307.515137 
	C246.966110,307.698669 246.859024,307.824890 246.602097,307.970520 
	C246.399612,307.771790 246.476364,307.594391 246.877853,307.515137 
z"/>
<path fill="#435AA0" opacity="1.000000" stroke="none" 
	d="
M244.809265,308.622070 
	C244.850815,308.859131 244.715424,308.955353 244.421936,309.018158 
	C244.266830,308.751495 244.389664,308.583679 244.809265,308.622070 
z"/>
<path fill="#8B47B1" opacity="1.000000" stroke="none" 
	d="
M238.879181,308.671143 
	C238.790466,309.153107 238.486572,309.395691 238.149719,308.640869 
	C238.296082,308.460114 238.479858,308.478607 238.879181,308.671143 
z"/>
<path fill="#592B77" opacity="1.000000" stroke="none" 
	d="
M230.239288,340.117065 
	C230.465668,340.058258 230.729553,340.245300 231.025116,340.683411 
	C230.704498,340.869934 230.444473,340.679443 230.239288,340.117065 
z"/>
<path fill="#E312A0" opacity="1.000000" stroke="none" 
	d="
M204.036835,201.628571 
	C204.881119,201.261551 205.589264,201.161621 206.656006,201.041977 
	C209.107117,202.489502 211.293091,202.229950 213.783600,201.094025 
	C214.502396,200.847198 214.948944,200.880173 215.731583,200.927765 
	C216.448868,207.647583 215.658630,214.062454 211.221863,219.491226 
	C209.326080,221.810898 207.162430,223.942001 206.806458,227.509308 
	C206.418106,232.689377 205.655121,237.443314 205.160797,242.623505 
	C204.889923,246.892303 205.700562,250.587677 207.013077,254.600800 
	C207.053741,255.582199 207.189178,256.132477 207.724213,256.853424 
	C208.904465,265.048798 212.774719,271.949371 216.104431,279.416260 
	C216.006485,280.056915 215.864929,280.356018 215.704498,280.644653 
	C212.339813,286.698273 212.339371,286.698029 206.427338,283.134583 
	C204.756241,281.020691 203.422165,278.935760 202.019012,276.524689 
	C197.422485,273.551697 195.495605,269.480377 195.687210,264.058228 
	C198.066772,262.477570 199.617065,264.613281 201.517776,264.793488 
	C202.908325,263.913635 202.222473,262.667419 201.981613,261.658051 
	C200.075272,253.669037 200.242874,245.447739 199.202286,237.363312 
	C198.904770,235.051788 198.923965,232.639511 199.626511,230.411926 
	C201.227325,225.336197 201.263840,220.258896 200.150528,215.122284 
	C199.409882,211.705093 199.924637,208.534515 201.913025,205.275467 
	C202.592804,203.919235 203.246750,202.907455 204.036835,201.628571 
z"/>
<path fill="#E86BCA" opacity="1.000000" stroke="none" 
	d="
M205.683838,284.907104 
	C214.087708,294.210236 220.173157,304.993805 227.082550,315.646118 
	C217.507050,316.558441 212.262115,310.515930 207.720825,303.014679 
	C205.453308,299.269257 203.796219,295.473572 203.204712,291.162170 
	C202.870712,288.727692 202.956161,286.508942 205.683838,284.907104 
z"/>
<path fill="#F53CB5" opacity="1.000000" stroke="none" 
	d="
M196.113220,263.624512 
	C197.368225,268.106293 199.569046,271.795258 201.845535,275.848572 
	C201.668747,276.368988 201.304749,276.476044 201.118530,276.719238 
	C197.048737,282.034302 197.045120,282.041595 193.429733,275.963379 
	C192.912140,275.093201 192.380783,274.284668 191.092606,273.827332 
	C190.142395,270.945099 187.931595,268.713562 188.065247,265.279388 
	C188.839722,262.671844 189.556900,260.325897 192.429260,260.147644 
	C194.525848,260.017548 195.846878,261.130524 196.113220,263.624512 
z"/>
<path fill="#B651B7" opacity="1.000000" stroke="none" 
	d="
M226.057724,330.969116 
	C225.527084,330.542450 225.247314,330.097260 224.909363,329.389038 
	C225.275040,329.783691 227.601944,328.921143 226.057724,330.969116 
z"/>
<path fill="#B651B7" opacity="1.000000" stroke="none" 
	d="
M228.886871,333.828125 
	C228.605057,333.934143 228.384964,333.773499 228.081635,333.396790 
	C228.627838,332.484283 228.816879,332.929871 228.886871,333.828125 
z"/>
<path fill="#FA5EFC" opacity="1.000000" stroke="none" 
	d="
M190.264221,390.055176 
	C184.359756,389.398132 178.924774,388.771210 173.495880,388.095306 
	C172.189743,387.932678 170.810196,387.820343 169.632584,387.302490 
	C168.189316,386.667755 166.074356,385.918671 166.751038,383.904816 
	C167.324371,382.198486 169.376495,382.912659 170.767914,383.029175 
	C189.767807,384.620514 208.761520,386.285370 227.759659,387.897858 
	C229.890137,388.078674 232.129639,388.365997 231.823868,391.076904 
	C231.515518,393.810547 229.219421,392.843414 227.464508,392.716431 
	C215.221848,391.830811 203.076553,389.590027 190.264221,390.055176 
z"/>
<path fill="#1270A0" opacity="1.000000" stroke="none" 
	d="
M291.319946,256.818390 
	C291.363892,254.917175 291.693665,252.840256 292.036957,250.360626 
	C293.755768,240.871384 296.220520,231.824356 295.859741,222.535461 
	C295.628632,216.585464 299.153809,211.657532 299.027557,205.740356 
	C298.927368,201.045959 297.514008,196.180099 299.792175,191.254364 
	C302.482910,190.850998 303.034607,192.632004 303.353271,194.436554 
	C303.863678,197.326874 304.529510,200.184753 305.169281,203.473328 
	C305.473846,204.701935 305.489044,205.546616 305.594299,206.807831 
	C307.218842,212.829865 307.646118,218.450363 305.768921,224.494354 
	C303.621307,229.085648 305.716339,234.132812 302.707703,238.523346 
	C300.567291,243.103851 299.456726,247.724319 296.284637,251.715698 
	C292.911987,252.039871 293.407959,255.383362 291.319946,256.818390 
z"/>
<path fill="#1F92D0" opacity="1.000000" stroke="none" 
	d="
M304.367371,204.070480 
	C302.000244,200.068314 303.046661,195.302353 300.310242,191.234833 
	C300.011444,190.546402 299.976501,190.111954 299.906860,189.352295 
	C298.903748,188.025208 299.010498,186.581635 298.251343,185.140961 
	C297.999603,183.223862 297.892792,181.600021 297.721588,179.577057 
	C297.962372,175.976868 296.755066,173.126144 295.646698,170.235840 
	C294.868225,168.205780 294.143829,165.815765 296.506744,164.563934 
	C298.940521,163.274551 299.286987,165.985245 300.217560,167.321213 
	C300.928986,168.342560 301.885925,168.836884 303.372498,169.186615 
	C303.821533,169.951080 303.938782,170.607651 304.070679,171.600159 
	C301.760742,175.554153 301.613922,179.286331 303.178772,183.273941 
	C304.941345,187.765320 305.227356,192.631592 306.277863,197.305832 
	C306.776520,199.524734 307.355286,202.326447 304.367371,204.070480 
z"/>
<path fill="#1270A0" opacity="1.000000" stroke="none" 
	d="
M298.075897,185.225052 
	C299.347687,185.678711 299.992523,186.821716 299.901306,188.680801 
	C297.979980,188.570053 297.995728,187.095261 298.075897,185.225052 
z"/>
<path fill="#1F92D0" opacity="1.000000" stroke="none" 
	d="
M295.888245,252.293793 
	C296.357147,247.355286 299.464508,243.801865 300.665009,239.202301 
	C304.548767,239.587631 303.381531,242.408829 302.985657,244.362000 
	C301.643524,250.983475 302.858276,257.643585 302.342865,264.262207 
	C302.273071,265.159149 302.846649,265.813721 303.670319,266.710754 
	C303.681244,267.486725 303.431976,267.989990 303.054321,268.743835 
	C302.779327,269.166687 302.632721,269.338989 302.241699,269.746643 
	C301.997253,269.981995 301.996307,269.995270 301.987091,269.995789 
	C300.923187,270.800720 299.955566,271.773895 298.794800,272.372620 
	C296.718628,273.443451 294.479828,272.755310 295.182251,270.397858 
	C296.947815,264.471985 293.698975,258.502960 295.888245,252.293793 
z"/>
<path fill="#B80E84" opacity="1.000000" stroke="none" 
	d="
M205.445465,242.781021 
	C202.538818,237.998123 204.489456,232.930099 205.101105,227.450684 
	C207.938416,223.326065 211.696762,220.802170 215.944473,219.243393 
	C219.674728,217.874496 223.718201,216.691345 226.957428,221.170044 
	C227.108124,224.831711 225.921967,226.998978 222.266510,227.029449 
	C220.313263,227.045731 218.865036,228.117294 217.272339,229.719177 
	C215.558151,233.397064 211.831085,234.408310 209.549911,237.051620 
	C208.036560,238.805206 206.891632,240.656555 205.445465,242.781021 
z"/>
<path fill="#8D2C91" opacity="1.000000" stroke="none" 
	d="
M217.323639,229.999191 
	C217.493149,227.398300 219.108627,225.957092 221.723511,226.082886 
	C224.281250,226.205917 225.053131,224.596512 225.843842,222.333344 
	C228.122269,217.572418 231.560410,217.985184 235.680786,219.595978 
	C244.288910,221.478302 245.823563,228.435959 247.840851,234.973389 
	C248.179153,236.069702 248.016205,237.278793 246.473358,238.026428 
	C242.896744,235.383194 240.471619,231.659897 235.615540,230.803436 
	C230.340958,226.436996 224.973160,227.518906 219.280273,229.691223 
	C218.569397,229.976730 218.116394,229.987000 217.323639,229.999191 
z"/>
<path fill="#B80E84" opacity="1.000000" stroke="none" 
	d="
M207.918579,256.786407 
	C207.025818,256.823883 206.096512,256.600342 206.893585,255.155334 
	C207.378281,255.483978 207.657883,255.985580 207.918579,256.786407 
z"/>
<path fill="#F2089F" opacity="1.000000" stroke="none" 
	d="
M196.326965,264.065186 
	C192.928467,258.402069 190.962418,262.883057 188.393082,264.835754 
	C183.452927,252.980423 181.713623,240.602386 183.133514,227.987152 
	C184.205673,218.461395 189.805252,211.262711 197.326538,205.606979 
	C198.247574,204.914383 199.863876,205.146362 201.548431,204.940445 
	C203.076431,205.989609 205.779449,205.458511 205.561691,207.662064 
	C205.361237,209.690643 203.412506,208.261978 202.278412,208.538498 
	C200.868896,208.882172 201.296066,209.964737 201.470215,210.941116 
	C202.724747,217.974182 202.456467,224.790817 201.465714,232.019608 
	C200.158020,241.560669 201.898895,251.474243 203.873901,261.077911 
	C204.317047,263.232819 206.257828,265.677460 203.541916,267.390381 
	C200.717133,269.171997 199.495422,266.462616 197.992386,264.780518 
	C197.688293,264.440216 197.123001,264.333282 196.326965,264.065186 
z"/>
<path fill="#C924A8" opacity="1.000000" stroke="none" 
	d="
M237.626251,207.925110 
	C237.706619,208.197113 237.814926,208.633362 237.887619,208.846039 
	C239.558868,209.692856 239.626328,211.436935 240.701523,212.844910 
	C240.915604,213.523209 240.944519,213.941299 240.998947,214.672699 
	C242.006454,216.095886 243.257706,217.316879 242.176620,218.821762 
	C240.905762,220.590790 239.035019,220.123001 236.898590,219.236176 
	C233.442154,216.703110 230.140274,214.349411 226.288422,214.247513 
	C218.979858,214.054184 217.962357,211.344894 219.463531,203.400864 
	C219.587891,202.742630 219.989746,202.190460 220.710632,201.373260 
	C226.032272,202.284149 230.373047,205.202194 235.560272,206.989090 
	C235.910782,207.062775 235.945465,207.059814 235.959595,207.066483 
	C236.426682,207.459152 237.011459,207.487915 237.626251,207.925110 
z"/>
<path fill="#A438AB" opacity="1.000000" stroke="none" 
	d="
M236.647141,218.009949 
	C238.686996,217.735947 242.295654,221.207291 241.051636,215.321838 
	C246.405518,216.103104 246.998566,221.074585 247.647598,224.869949 
	C248.218307,228.207245 247.189896,231.813828 248.877914,235.228851 
	C249.498505,236.484329 248.928085,238.151382 248.054871,239.901199 
	C247.325012,239.733185 246.760696,239.178452 246.141205,238.322479 
	C247.282837,233.220490 243.684647,225.300934 239.551620,223.639420 
	C238.328217,223.147583 237.110855,222.646820 236.163788,221.169754 
	C235.128983,219.850327 235.519302,218.990616 236.647141,218.009949 
z"/>
<path fill="#A438AB" opacity="1.000000" stroke="none" 
	d="
M240.880478,212.760010 
	C238.915268,212.796661 238.987091,210.916229 238.100372,209.362106 
	C238.380844,209.065063 238.801376,209.071442 239.532898,209.123383 
	C240.187347,210.250931 240.530807,211.332916 240.880478,212.760010 
z"/>
<path fill="#04A8DB" opacity="1.000000" stroke="none" 
	d="
M304.118408,225.401611 
	C305.238800,219.301422 305.191498,213.590881 304.121613,207.457886 
	C306.849792,203.885422 306.262909,200.222977 305.517670,196.674728 
	C304.688599,192.727341 304.959198,188.783585 305.145020,184.846802 
	C305.236115,182.916931 305.652679,180.786865 308.704071,180.730164 
	C309.495300,180.950211 309.894989,180.980301 310.589478,181.061462 
	C313.239777,186.522263 315.921661,191.816605 317.883423,197.365540 
	C322.094788,209.277527 324.784729,221.449692 321.981232,234.597168 
	C321.746826,235.179230 321.611572,235.353790 321.254883,235.774765 
	C321.033447,236.021164 320.980011,236.510574 320.948547,236.754700 
	C320.503204,237.464523 320.511993,238.075653 320.217529,238.888016 
	C320.043335,239.559158 320.007355,239.972305 319.926727,240.693375 
	C319.741333,241.185287 319.600647,241.369247 319.265015,241.840790 
	C318.468719,243.552094 317.867371,244.975815 317.109375,246.693237 
	C316.657349,247.337936 316.511627,247.742813 316.539062,248.534882 
	C316.562592,248.868240 316.510040,249.255707 316.467041,249.445404 
	C316.166199,250.083511 315.908356,250.531921 315.520447,251.201050 
	C315.141937,251.628738 314.866516,251.789444 314.332153,251.969543 
	C313.066925,252.940414 313.033844,254.340256 312.185211,255.676941 
	C311.847595,256.302185 311.736877,256.699463 311.477966,257.369629 
	C311.329773,257.642548 311.139252,257.689087 311.044006,257.712341 
	C310.768341,257.694916 310.587921,257.654205 310.202759,257.800659 
	C309.536346,258.283813 309.074677,258.579773 308.377838,259.017792 
	C304.243164,257.469208 303.703339,254.918594 303.640106,250.178101 
	C303.531433,242.031311 305.884583,233.947403 304.118408,225.401611 
z"/>
<path fill="#119CD4" opacity="1.000000" stroke="none" 
	d="
M320.270691,238.988937 
	C320.218567,238.571671 320.357849,237.997314 320.707092,237.210907 
	C320.933319,237.166016 320.949554,237.333191 320.980927,237.751892 
	C320.863678,238.308945 320.685669,238.585083 320.270691,238.988937 
z"/>
<path fill="#119CD4" opacity="1.000000" stroke="none" 
	d="
M321.222351,235.894806 
	C321.130432,235.728348 321.292633,235.477768 321.701080,235.137039 
	C321.798828,235.304688 321.641876,235.559280 321.222351,235.894806 
z"/>
<path fill="#F372F9" opacity="1.000000" stroke="none" 
	d="
M256.577606,398.729248 
	C257.346924,398.508789 257.809631,398.462830 258.622192,398.409241 
	C260.580719,398.706818 262.189362,399.012024 264.493256,399.449158 
	C259.625275,402.567322 254.443878,403.294708 249.631729,404.929779 
	C248.335495,405.370239 247.292633,404.712769 247.088531,403.300720 
	C246.880005,401.858063 247.324814,400.539459 248.900696,400.194122 
	C251.334839,399.660706 253.812042,399.323914 256.577606,398.729248 
z"/>
<path fill="#C31C9A" opacity="1.000000" stroke="none" 
	d="
M236.903580,217.524597 
	C236.684113,218.640381 236.375473,219.437317 236.028503,220.544876 
	C232.860428,220.992218 229.516678,218.609024 226.310028,221.820953 
	C222.610306,218.086929 218.848328,219.821365 215.314697,221.501160 
	C212.031769,223.061798 208.966156,225.079514 205.467773,226.961304 
	C205.651352,223.862579 206.620071,221.081726 209.369934,218.924850 
	C211.898376,216.941650 213.500900,213.893646 213.493927,210.712845 
	C213.486526,207.345154 214.645126,204.546158 216.038116,201.315201 
	C217.435349,200.965317 218.803009,200.988266 220.581757,201.037323 
	C220.837418,204.169662 219.802490,207.579056 220.742966,210.307556 
	C221.997009,213.945816 226.313080,210.977524 228.947189,212.509918 
	C231.587997,214.046188 234.977722,214.313675 236.903580,217.524597 
z"/>
<path fill="#119CD4" opacity="1.000000" stroke="none" 
	d="
M303.807373,225.307770 
	C306.232300,226.251678 307.091919,228.747864 306.733398,230.537079 
	C305.382538,237.278854 306.945709,244.193787 305.242401,250.837265 
	C304.420990,254.040939 306.662811,256.085114 307.878052,258.892700 
	C308.425598,262.471771 304.934113,263.637146 304.005432,266.643036 
	C300.385529,267.292572 300.160980,265.579559 300.233459,262.404663 
	C300.408325,254.743378 300.657043,247.101929 301.162170,239.205811 
	C302.450409,234.623383 303.058655,230.127594 303.807373,225.307770 
z"/>
<path fill="#119CD4" opacity="1.000000" stroke="none" 
	d="
M310.243408,257.953918 
	C310.138275,257.661255 310.374023,257.522156 310.827026,257.653076 
	C310.948730,257.735596 310.488831,257.919952 310.243408,257.953918 
z"/>
<path fill="#2F82C4" opacity="1.000000" stroke="none" 
	d="
M302.193787,269.859802 
	C302.130219,269.700684 302.314972,269.458954 302.738708,269.125610 
	C302.813080,269.289459 302.634552,269.537201 302.193787,269.859802 
z"/>
<path fill="#119CD4" opacity="1.000000" stroke="none" 
	d="
M316.688568,248.570404 
	C316.172516,248.326614 316.106842,247.791870 316.774628,247.127930 
	C316.906647,247.415497 316.860596,247.844025 316.688568,248.570404 
z"/>
<path fill="#119CD4" opacity="1.000000" stroke="none" 
	d="
M319.261292,241.984604 
	C319.133423,241.806244 319.280731,241.528732 319.697021,241.148560 
	C319.823975,241.324661 319.680786,241.604507 319.261292,241.984604 
z"/>
<path fill="#119CD4" opacity="1.000000" stroke="none" 
	d="
M309.073364,180.613861 
	C306.615509,181.558197 307.009430,183.583084 307.010712,185.358383 
	C307.014832,191.097977 306.062317,196.821960 306.926880,202.586548 
	C307.173798,204.233002 307.559631,206.423004 304.526978,206.994690 
	C304.082794,206.282318 304.023346,205.528275 303.964722,204.396683 
	C305.807892,201.022827 304.745483,198.032715 304.189819,194.923447 
	C303.085236,188.742722 300.093658,183.004822 299.998901,176.604187 
	C299.964111,174.253799 300.312622,172.209320 303.679840,171.973633 
	C304.445465,172.000458 304.805603,172.064819 305.421265,172.226288 
	C305.676788,172.323395 305.839325,172.747253 305.907928,172.963593 
	C306.605591,173.450516 306.459381,174.083984 306.794159,174.789047 
	C307.657654,176.774338 308.354401,178.540970 309.073364,180.613861 
z"/>
<path fill="#1F92D0" opacity="1.000000" stroke="none" 
	d="
M306.944153,174.721252 
	C306.662323,174.573624 306.363739,174.139526 306.020813,173.442688 
	C305.976532,173.179947 306.330139,173.203400 306.494934,173.265015 
	C306.748932,173.696030 306.838165,174.065414 306.944153,174.721252 
z"/>
<path fill="#119CD4" opacity="1.000000" stroke="none" 
	d="
M312.192871,255.796967 
	C311.990326,254.511566 312.139862,253.168472 313.792084,252.185608 
	C314.005981,252.705765 313.911774,253.376358 313.710022,254.366791 
	C313.210815,255.020767 312.819122,255.354904 312.192871,255.796967 
z"/>
<path fill="#A438AB" opacity="1.000000" stroke="none" 
	d="
M237.746063,207.960800 
	C237.238464,207.961929 236.770294,207.726730 236.137924,207.282349 
	C236.369843,207.087372 236.765991,207.101578 237.449524,207.181793 
	C237.736908,207.247803 237.785492,207.724487 237.746063,207.960800 
z"/>
</svg>