<svg xmlns="http://www.w3.org/2000/svg" width="500" height="500"><path fill="#040208" d="M260.938 26.438c4.192.77 5.354 2.284 8.062 5.562 1.324 2.942 2.23 5.966 3.125 9.063 1.997 6.929 1.997 6.929 5.875 12.937v2l2.313.875C283 58 283 58 286 60c5.892.408 11.144-.86 15.992-4.207 3.388-3.025 6.094-6.562 8.832-10.172 5.234-6.304 5.234-6.304 9.309-6.969l1.992.285 2.008.215c2.993 1.36 3.602 2.817 4.867 5.848.376 3.394.362 6.775.375 10.188.284 11.192.284 11.192 5.625 20.812 4.287 3.169 7.757 3.592 13 3 8-1.8 13.632-4.721 19.648-10.293 2.841-2.062 4.871-2.49 8.352-2.707 4.565 2.13 4.565 2.13 6 5 .553 4.938.075 9.236-1.5 13.938-2.367 7.27-2.536 14.27.52 21.37 2.018 3.482 4.575 5.248 8.355 6.442 8.116.773 14.841-.586 22.25-3.937 4.325-1.48 8.546-1.499 12.875.124 2.072 2.85 2.229 4.964 2.098 8.45-.983 4.297-3.366 7.56-5.871 11.133-4.58 6.578-4.463 12.564-3.727 20.48 1.19 3.712 3.32 5.494 6.438 7.813 8.816 2.938 18.402 2.275 27.566 1.734C454 159 454 159 456.398 161.3 458 164 458 164 458.062 167.438c-1.709 5.73-5.008 8.762-9.562 12.312-4.805 4.016-7.613 9.298-8.98 15.39-.349 4.783 1.211 8.322 3.902 12.114 5.113 5.658 13.485 7.021 20.587 8.909 7.2 1.967 7.2 1.967 9.991 4.837.585 3.949.562 6.117-1.602 9.516-2.857 2.96-5.517 4.203-9.273 5.859-6.89 3.214-10.675 6.577-14.562 13-1.049 4.891-.754 9.321 1.566 13.809 3.486 5.025 7.535 7.964 12.871 10.816q2.408 1.31 4.813 2.625l2.207 1.164c2.02 1.235 3.475 2.385 4.98 4.211.438 2.938.438 2.938 0 6-3.623 4.831-8.06 5.853-13.75 6.875-4.512.837-8.326 2.309-12.437 4.32C447 300 447 300 445 300a171 171 0 0 0-2 4l-1.75 3.125c-2.015 4.757-.883 9.131.75 13.875 1.185 2.178 2.506 4.008 4 6v2h2c1.766 1.619 3.373 3.25 5 5l1.695 1.68c4.289 4.488 4.289 4.488 4.368 8.507-1.072 2.836-2.004 4.604-4.063 6.813-2.11.406-2.11.406-4.535.285l-2.705-.08-2.822-.142c-8.71-.416-16.917-.263-24 5.375-3.552 4.696-3.427 9.859-2.938 15.562 1.349 6.855 4.869 12.331 8.672 18.105 1.606 3.5 1.35 5.236.328 8.895-1.062 1.875-1.062 1.875-3 3-5.432.552-9.139-.208-14.137-2.266-6.256-2.465-13.607-2.423-20.113-1.046-3.686 1.759-6.935 4.056-8.371 8.03-1.393 8.39-1.051 17.175 1.965 25.134.773 2.531.9 4.514.656 7.148-2.062 2.875-2.062 2.875-5 5-5.768-.158-8.873-1.964-13.375-5.437-7.953-5.824-13.752-7.136-23.46-5.95-2.336.364-2.336.364-5.165 1.387-1.102 1.698-1.102 1.698-2 4l-1.562 3c-2.637 6.179-2.482 13.259-2.375 19.875-.07 3.488-.592 5.962-2.063 9.125-2.107 1.599-3.744 1.945-6.312 2.5-5.754-1.07-9.365-5.893-12.563-10.5-4.041-5.614-9.124-9.12-15.75-11.062-6.099.112-11.159 2.735-15.375 7.062-3.87 6.071-5.801 12.32-7.227 19.336-.838 2.887-1.654 4.535-3.773 6.664-3.126 1.007-5.85.9-9 0-3.72-3.45-5.189-8.42-6.937-13.062-2.511-6.582-6.5-11.985-13.063-14.938-5.395-1.678-9.154-.532-14 2-6.027 3.534-9.022 9.016-12.16 15.062-1.83 3.471-3.33 6.052-6.84 7.938-5.98-.21-5.98-.21-8.648-2.276-1.636-2.086-1.973-3.576-2.415-6.181l-.476-2.623-.461-2.733c-1.497-8.76-3.134-15.025-10-21.187-4.166-2.083-9.452-1.323-14-1-6.328 2.15-11.085 7.04-15.687 11.75-3.489 3.394-3.489 3.394-6.313 4.25-3.017-.185-5.195-.528-7.812-2.062-3.065-5.001-2.133-10.478-1.188-15.938.467-7.328.414-13.408-3-20-3.722-3.63-6.89-5.137-12.062-5.25-7.422.108-13.667 2.487-20.126 6-3.4 1.77-4.787 2.25-8.75 2.313C92 425 92 425 90 423.5c-1.597-3.993-1.086-7.39 0-11.5a98 98 0 0 1 2.5-4.875c3.082-5.76 4.449-11.705 3.055-18.2-1.958-5.185-5.301-8.824-10.243-11.238-6.497-1.348-12.184-1.22-18.5.875-5.223 1.73-9.164 1.762-14.187-.75-2.309-2.575-2.556-4.38-2.625-7.812 1.869-3.638 4.173-6.384 7-9.312 5.701-6.351 7.568-11.823 7.293-20.356-.59-4.704-2.69-8.33-6.293-11.332-7.145-2.654-14.523-3.369-22.09-3.594-3.992-.557-6.832-1.985-9.285-5.219-.912-3.191-.658-5.024.375-8.187 2.708-2.708 5.523-4.681 8.703-6.809C43.861 299.638 43.861 299.638 48 291c.837-5.852.059-9.86-3-15l-1-3c-2.305-1.141-2.305-1.141-5-2a979 979 0 0 1-10-4l-2.578-1.043-2.422-1.02-2.187-.91C20 263 20 263 18 260c-.437-2.875-.437-2.875 0-6 3.767-4.653 7.502-6.282 13-8.062 7.153-2.356 12.601-4.882 16.262-11.961 1.755-4.699 1.531-8.72-.121-13.422-3.68-7.247-9.49-11.162-16.094-15.524C28 203 28 203 26 201c-.407-3.664-.53-6.066 1.313-9.312C31.553 189.025 36.1 188.692 41 188c7.905-1.223 14.82-2.507 21-8 1.978-5.935 1.642-12.56.063-18.562-2.28-4.493-5.855-8.273-9.102-12.083-3.216-3.863-3.394-6.328-2.961-11.355 1.438-2.437 1.438-2.437 4-4 5.263-.817 9.983.156 15.043 1.543 6.834 1.596 13.628.29 19.957-2.543 4.122-4.022 5.186-7.67 5.438-13.312-.009-6.662-2.312-11.52-5.086-17.477C87.57 97.977 87.167 95.5 88 91c1.625-2.5 1.625-2.5 4-4 5.191-.587 8.753 1.039 13.25 3.375 9.789 4.981 9.789 4.981 20.477 4.98 4.617-1.67 7.663-3.06 10.273-7.355 1.513-3.87 1.149-8.09 1.125-12.187v-2.306c-.021-3.983-.205-7.813-.812-11.757-.344-4.125.047-5.621 2.687-8.75 2.866-1.433 4.813-1.306 8-1 3.725 1.982 6.406 4.387 9.25 7.438 5.056 5.167 11.165 8.754 18.5 9.124 4.376-.3 6.96-1.57 10.25-4.562 4.66-5.851 6.518-11.906 7.383-19.254l.43-3.496.332-3.297c1.089-3.76 2.572-4.913 5.855-6.953 3.25-.207 5.043.177 7.54 2.324 2.868 3.157 4.94 6.46 6.898 10.239 2.893 5.366 6.14 9.11 11.917 11.351 5.222 1.344 9.598 1.356 14.618-.7 7.146-4.282 9.677-12.647 12.535-20.042 2.007-4.266 3.694-6.828 8.43-7.734M127.23 120.922c-2.048 1.908-4.15 3.714-6.293 5.516C101.1 143.81 85.656 169.19 77 194l-.695 1.978c-7.078 20.418-9.534 40.515-9.555 62.084l-.003 2.214c.01 10.442.42 20.545 2.795 30.75.485 2.093.913 4.192 1.337 6.298C72.908 307.028 76.007 315.94 80 325l1.508 3.438C84.68 335.48 88.196 342.279 92 349l1.266 2.238Q94.625 353.624 96 356h2l.625 2.563c1.734 4.335 4.243 7.04 7.375 10.437q1.755 1.995 3.5 4l1.785 2.027a187 187 0 0 1 3.211 3.79c3.782 4.581 7.962 8.366 12.504 12.183l2.582 2.277C151.952 412.65 178.401 424.998 207 432l2.247.552c12.47 2.866 25.214 2.756 37.94 2.823l2.578.024c11.751.084 22.74-.977 34.235-3.399l4.378-.878c28.42-5.78 56.821-21.01 77.622-41.122a411 411 0 0 1 4.25-3.687C378.6 378.99 385.318 370.836 392 362l1.945-2.566c8.38-11.517 14.862-24.206 20.055-37.434l1.266-3.07c3.071-7.913 5.062-15.985 6.984-24.243l.783-3.362c7.266-32.25 3.536-66.3-7.033-97.325l-.646-1.964C403.394 156.282 374.333 123.964 343 104l-3.121-2.031c-64.558-41.09-156.496-33.444-212.649 18.953"/><path fill="#020207" d="M262 125c5.26 1.508 8.479 4.923 12.313 8.625l2.032 1.94q1.976 1.89 3.942 3.789a227 227 0 0 0 4.014 3.751c20.345 19.038 38.285 48.15 39.625 76.267.624 20.55-10.225 37.31-22.926 52.628l-2.527 3.05c-4.423 5.297-8.93 10.493-13.598 15.575-4.035 4.397-7.853 8.921-11.594 13.57a264 264 0 0 1-4.75 5.672C256.853 323.457 246.117 338.783 244 357l-4 1-1.547-2.684c-4.103-7.025-8.402-13.826-13.14-20.441-51.299-71.696-51.299-71.696-46.624-105.52 1.66-9.913 4.617-17.623 12.311-24.355l2.125-2.062c7.929-5.344 16.436-7.103 25.875-5.938 10.636 2.187 20.239 7.525 26.5 16.563 6.595 11.062 8.172 22.171 5.188 34.75-1.15 4.156-2.322 8.04-4.688 11.687l-3 1-.104-1.709c-.172-2.6-.377-5.194-.583-7.791l-.163-2.687c-.62-7.332-2.936-12.378-7.963-17.75-4.952-2.406-8.863-2.454-14-.938-5.266 3.098-6.521 7.2-8.187 12.875-2.12 19.7 6.444 40.443 18.238 55.941 4.09 5.006 4.09 5.006 9.602 8.141 4.575-.119 6.877-2.025 10.16-5.082 2.201-2.356 4.144-4.849 6.063-7.437l1.662-2.217c20.509-27.797 35.378-55.266 30.404-90.627-3.625-23.002-11.857-43.813-22.268-64.545l-1.517-3.053-1.37-2.705C262 129 262 129 262 125"/><path fill="#04010b" d="M380 349c0 4 0 4-1.286 5.856-6.111 5.747-11.723 6.464-19.901 7.019l-3.745.328c-8.217.688-16.46 1.206-24.703 1.42-4.704.141-9.254.62-13.912 1.303-9.986 1.39-20.02 1.923-30.08 2.507-3.329.193-6.656.395-9.984.598l-6.416.383-2.98.18c-5.342.307-10.642.465-15.993.406-1-2-1-2-.25-5.5C252 360 252 360 255 358c2.466-.379 2.466-.379 5.44-.562l3.382-.223 3.674-.215 3.812-.246q5.04-.324 10.082-.629c5.953-.363 11.905-.743 17.856-1.125l3.886-.248c8.885-.582 17.73-1.369 26.584-2.31 6.228-.659 12.472-1.087 18.721-1.505l6.872-.472 3.335-.227c4.503-.32 9.002-.682 13.5-1.052 2.63-.171 5.222-.22 7.856-.186"/><path fill="#05010c" d="M100 349c11.733.64 23.446 1.456 35.161 2.372q4.387.342 8.776.681 9.313.721 18.625 1.447l21.633 1.679q4.278.33 8.554.666l2.71.21q2.606.202 5.21.408c4.002.31 7.998.581 12.008.753l2.215.103c1.95.086 3.902.157 5.853.225 3.492.49 5.457 1.342 8.255 3.456.942 2.723.857 5.082 1 8q-6.75-.212-13.5-.437l-3.844-.12c-10.594-.358-10.594-.358-14.922-.955-4.665-.61-9.286-.722-13.984-.863-10.287-.37-20.442-1.37-30.666-2.536-6.633-.749-13.228-1.355-19.897-1.651-5.5-.26-10.965-.616-16.437-1.25l-3.516-.395c-6.077-1.49-10.027-5.338-14.234-9.793z"/><path fill="#04010a" d="m138.49 363.497 2.308.197q3.791.327 7.58.67l5.307.46q5.58.484 11.16.981 7.073.629 14.149 1.24 5.495.479 10.988.961l5.206.456q8.409.736 16.812 1.538l2.555.239q3.766.36 7.53.746l2.325.218c5.36.567 5.36.567 7.59 2.797.565 2.655.738 5.291 1 8-3.775 1.258-6.857.686-10.715.188-10.226-1.229-20.47-2.098-30.734-2.934q-4.76-.389-9.52-.79c-8.82-.734-17.636-1.46-26.469-2.026l-3.497-.235q-2.998-.196-5.999-.344c-6.916-.457-11.15-2.392-16.504-6.921C128 367 128 367 128 364c3.662-1.22 6.722-.848 10.49-.503"/><path fill="#03010a" d="M352 364c0 3 0 3-1.569 4.988-6.087 5.765-10.54 7.264-18.814 7.563l-3.275.21c-3.488.217-6.976.384-10.467.551q-3.6.214-7.198.44-7.094.44-14.192.847c-8.267.49-16.498 1.243-24.735 2.089l-3.625.362c-5.922.598-5.922.598-11.834 1.288-6.098.758-6.098.758-8.291-.338l1-9c5.485-1.77 10.677-2.508 16.41-2.965l2.754-.236q4.449-.376 8.899-.736l6.18-.52q7.86-.655 15.723-1.294 5.721-.471 11.442-.953 5.15-.429 10.299-.848 2.385-.195 4.772-.395c8.852-.735 17.63-1.245 26.521-1.053"/><path fill="#04020b" d="M161.144 378.874c6.41.03 12.724.344 19.106.938 7.98.716 15.958 1.356 23.95 1.918l8.053.58q2.685.19 5.372.37 3.795.26 7.59.539l2.339.148c1.822.139 3.637.376 5.446.633 1.203 2.405 1.1 3.95 1.062 6.625l-.027 2.477L234 395l-1.762-.168c-10.824-1.017-21.623-1.92-32.488-2.332-7.128-.282-14.214-.72-21.313-1.438l-2.362-.226c-7.444-.805-11.7-2.828-17.075-7.836l-1-3c1-1 1-1 3.144-1.126"/><path fill="#05020b" d="M322 379c-.942 4.19-2.329 5.966-5.652 8.676-4.712 2.658-10.046 2.843-15.348 3.324l-2.286.248c-5.988.643-11.947.974-17.964 1.19-11.29.452-22.51 1.433-33.75 2.562-.847-3.732-.96-6.27 0-10 4.526-.82 9.036-1.32 13.617-1.684a4408.59 4408.59 0 0 1 9.258-.754l4.874-.397q3.663-.3 7.325-.597 7.162-.583 14.32-1.209l3.269-.283q2.919-.255 5.838-.517c5.523-.475 10.956-.632 16.499-.559"/><path fill="#0a0618" d="M274 396c-2.49 3.736-4.973 4.258-9.062 5.5q-2.044.646-4.086 1.293c-.661.205-1.322.41-2.003.623-2.364.747-4.699 1.572-7.036 2.397C248 407 248 407 244 407v-9c3.715-1.857 8.095-1.732 12.188-2.125.933-.1 1.867-.199 2.83-.3 5.228-.509 9.821-.589 14.982.425"/><path fill="#0a0615" d="m222 395.75 3.68.227 3.507.257 3.231.226C235 397 235 397 237 400c.08 2.332.088 4.668 0 7-6.085-.615-11.498-2.34-17.25-4.375l-2.719-.922-2.61-.914-2.356-.822c-2.193-1.027-3.474-2.162-5.065-3.967 4.311-2.156 10.307-.599 15-.25"/></svg>